<svg width="29" height="24" viewBox="0 0 29 24" fill="none" xmlns="http://www.w3.org/2000/svg">
<path d="M9.03531 23.9661C9.51728 23.9661 9.90656 23.5809 9.90656 23.1041C9.90656 22.9345 9.85559 22.7786 9.76753 22.6411C9.60997 22.4027 9.34118 22.2422 9.03531 22.2422C8.55334 22.2422 8.16406 22.6273 8.16406 23.1041C8.16406 23.2829 8.21967 23.448 8.31699 23.5901C8.47456 23.8193 8.73872 23.9661 9.03531 23.9661Z" fill="white"/>
<path d="M13.7446 12.1978C11.1031 15.5171 9.7452 18.3505 9.05469 20.3953C9.11957 20.895 9.15201 21.3581 9.17055 21.7799C9.26323 21.7891 9.35592 21.8028 9.44397 21.8303C9.97692 19.836 11.2884 16.5303 14.5278 12.4912C14.2683 12.3903 14.0041 12.2894 13.7492 12.1978" fill="white"/>
<path d="M28.128 0.0924189C28.0029 -0.0222 27.8129 -0.040539 27.6646 0.0557409C21.3527 4.18202 17.0984 8.1295 14.2344 11.5864C14.4893 11.6827 14.7488 11.7836 15.0129 11.889C17.6591 8.71635 21.4778 5.13107 27.0019 1.39449C26.7007 2.16473 26.3253 3.31092 26.0102 4.80555C26.0426 4.80555 26.075 4.79638 26.1121 4.79638C26.3485 4.79638 26.5663 4.86057 26.7609 4.96602C27.3727 2.09596 28.1883 0.573819 28.2022 0.54631C28.2856 0.395013 28.2532 0.207038 28.128 0.0924189Z" fill="white"/>
<path d="M9.50073 21.851C9.61659 21.8922 9.73244 21.9472 9.82976 22.016C10.2747 21.5988 10.7613 21.2091 11.2849 20.8515C13.5465 18.4032 16.4893 16.7527 18.8898 15.7074C18.7091 15.5286 18.584 15.3039 18.5237 15.0518C15.5948 16.3309 11.9152 18.4903 9.49609 21.851" fill="white"/>
<path d="M25.5885 7.41132C25.4031 8.9839 25.3058 10.804 25.38 12.8764C24.7126 13.0093 23.086 13.3669 21.0469 14.073C21.1627 14.2747 21.2369 14.5039 21.2369 14.7515C21.2369 14.7653 21.2369 14.7836 21.2322 14.7974C23.8414 13.8896 25.8063 13.5503 25.8341 13.5457C26.0195 13.5136 26.1539 13.3486 26.1446 13.1606C26.0473 11.0012 26.1493 9.11227 26.3439 7.48926C26.2697 7.50302 26.191 7.51219 26.1122 7.51219C25.9268 7.51219 25.7461 7.47551 25.5839 7.40674" fill="white"/>
<path d="M23.9072 17.7242C22.7161 17.7105 20.7605 17.7609 18.5638 18.1323C15.6535 18.6274 13.1973 19.549 11.2833 20.8556C10.755 21.2132 10.2684 21.6029 9.82812 22.0202C10.0367 22.1669 10.2035 22.364 10.3055 22.5978C15.3615 17.793 24.9453 18.5128 25.0518 18.5174C25.2187 18.5312 25.3716 18.4349 25.4319 18.2836C25.4921 18.1323 25.4458 17.9581 25.316 17.8572C23.9164 16.7752 22.5447 15.8353 21.2054 15.0146C21.1544 15.2714 21.0293 15.496 20.8578 15.6794C21.8542 16.2938 22.8737 16.9723 23.9072 17.7288" fill="white"/>
<path d="M9.48438 10.9523C10.7634 11.2366 12.1954 11.6309 13.7479 12.1948C14.0028 12.2865 14.2624 12.3873 14.5265 12.4882C15.8056 12.9879 17.1542 13.5977 18.563 14.345C18.6418 14.0975 18.7854 13.882 18.9801 13.7169C17.6037 12.9834 16.2829 12.3828 15.0224 11.883C14.7629 11.7776 14.4987 11.6767 14.2438 11.5804C12.5662 10.9569 11.023 10.5213 9.64194 10.2188C9.64194 10.2508 9.65121 10.2784 9.65121 10.3104C9.65121 10.5397 9.58633 10.7552 9.48438 10.9477" fill="white"/>
<path d="M9.04749 21.7696C9.0892 21.7696 9.12628 21.7788 9.16335 21.7834C9.14945 21.3616 9.11237 20.8985 9.04749 20.3988C8.64431 17.3041 7.07791 12.9302 1.76236 10.3398C2.87459 10.2481 4.6588 10.2114 6.92034 10.5049C6.91108 10.4407 6.90181 10.3811 6.90181 10.3169C6.90181 10.1197 6.94815 9.93177 7.0223 9.76214C2.93484 9.22572 0.409137 9.74838 0.297913 9.77131C0.135712 9.80799 0.0152202 9.94094 0.00131731 10.106C-0.0125856 10.271 0.0847349 10.4223 0.237667 10.4819C7.21694 13.2145 8.33381 18.9408 8.41259 21.9255C8.6026 21.8292 8.81578 21.7696 9.04286 21.7696" fill="white"/>
<path d="M20.7308 14.7472C20.7308 14.2704 20.3415 13.8853 19.8595 13.8853C19.3776 13.8853 18.9883 14.2704 18.9883 14.7472C18.9883 15.224 19.3776 15.6091 19.8595 15.6091C20.3415 15.6091 20.7308 15.224 20.7308 14.7472Z" fill="white"/>
<path d="M7.39844 10.3175C7.39844 10.7897 7.78772 11.1794 8.26969 11.1794C8.75166 11.1794 9.14094 10.7943 9.14094 10.3175C9.14094 9.84069 8.75166 9.45557 8.26969 9.45557C7.78772 9.45557 7.39844 9.84069 7.39844 10.3175Z" fill="white"/>
<path d="M25.2383 6.15441C25.2383 6.62664 25.6276 7.01635 26.1095 7.01635C26.5915 7.01635 26.9808 6.63123 26.9808 6.15441C26.9808 5.6776 26.5915 5.29248 26.1095 5.29248C25.6276 5.29248 25.2383 5.6776 25.2383 6.15441Z" fill="white"/>
<path d="M9.76304 22.6455C9.85109 22.7785 9.90207 22.9389 9.90207 23.1086C9.90207 23.5808 9.51279 23.9705 9.03082 23.9705C8.73422 23.9705 8.46543 23.8192 8.3125 23.5946C8.46543 23.833 8.73886 23.9934 9.04472 23.9934C9.52206 23.9934 9.91597 23.6083 9.91597 23.1315C9.91597 22.9527 9.86036 22.7831 9.76304 22.6455Z" fill="white"/>
</svg>
