<svg width="64" height="64" viewBox="0 0 64 64" fill="none" xmlns="http://www.w3.org/2000/svg">
<path d="M52 28.2V4H42V8H48V12H42V16H48V28.2C44.6 29 42 32.2 42 36C42 40.4 45.6 44 50 44C54.4 44 58 40.4 58 36C58 32.2 55.4 29.2 52 28.2ZM50 40C47.8 40 46 38.2 46 36C46 33.8 47.8 32 50 32C52.2 32 54 33.8 54 36C54 38.2 52.2 40 50 40Z" fill="#595959"/>
<path d="M30 62L19 55.6C12.2 51.6 8 44.4 8 36.6V8C8 5.8 9.8 4 12 4H36V8H12V36.6C12 43 15.4 49 21 52.2L30 57.6L39 52.2C41.2 50.8 43.2 49.2 44.6 47L47.8 49.2C46 51.8 43.6 54 40.8 55.6L30 62Z" fill="#595959"/>
</svg>
