<svg width="32" height="33" viewBox="0 0 32 33" fill="none" xmlns="http://www.w3.org/2000/svg">
<rect y="0.75" width="32" height="32" rx="16" fill="#474747"/>
<path d="M21.0001 11.75V12.835L10.8201 14.685C10.5872 14.7276 10.3769 14.8515 10.2267 15.0346C10.0766 15.2177 9.99627 15.4482 10.0001 15.685V17.855C9.99627 18.0918 10.0766 18.3223 10.2267 18.5054C10.3769 18.6885 10.5872 18.8124 10.8201 18.855L12.0001 19.03V20.75C12.0001 21.0152 12.1055 21.2696 12.293 21.4571C12.4806 21.6446 12.7349 21.75 13.0001 21.75H17.0001C17.2653 21.75 17.5197 21.6446 17.7072 21.4571C17.8948 21.2696 18.0001 21.0152 18.0001 20.75V20.12L21.0001 20.665V21.75H22.0001V11.75H21.0001ZM17.0001 20.75H13.0001V19.215L17.0001 19.94V20.75ZM11.0001 17.835V15.665L21.0001 13.85V19.65L11.0001 17.835Z" fill="white"/>
</svg>
