<?xml version="1.0" encoding="UTF-8"?>
<svg width="1em" height="1em" viewBox="0 0 52 52" version="1.1" xmlns="http://www.w3.org/2000/svg" xmlns:xlink="http://www.w3.org/1999/xlink">
    <title>Web/Check connection Icon</title>
    <g id="Page-1" stroke="none" stroke-width="1" fill="none" fill-rule="evenodd">
        <g id="PCDC-Page-Web" transform="translate(-626.000000, -307.000000)">
            <g id="Check-school-internet-connection" transform="translate(626.000000, 303.000000)">
                <g id="Group-14-Copy" transform="translate(0.000000, 4.000000)">
                    <polygon id="Fill-1" fill="#151820" points="0 52 52 52 52 0 0 0"></polygon>
                    <line x1="26" y1="10.4731467" x2="26" y2="16.2509244" id="Stroke-2" stroke="#FFFFFF" stroke-width="1.162"></line>
                    <line x1="14.0944267" y1="15.4045956" x2="16.54536" y2="17.8555289" id="Stroke-3" stroke="#FFFFFF" stroke-width="0.9"></line>
                    <line x1="37.9055733" y1="15.4045956" x2="35.45464" y2="17.8555289" id="Stroke-4" stroke="#FFFFFF" stroke-width="0.9"></line>
                    <g id="Group-13" transform="translate(9.162862, 10.473147)" stroke="#FFFFFF">
                        <path d="M7.38284444,26.2912 L4.93191111,28.7421333 C1.88471111,25.6960889 0,21.4864 0,16.8364444 C0,7.53768889 7.53884444,0 16.8376,0 C26.1363556,0 33.6740444,7.53768889 33.6740444,16.8364444 C33.6740444,21.4864 31.7893333,25.6960889 28.7421333,28.7421333 L26.2912,26.2912" id="Stroke-5" stroke-width="1.5"></path>
                        <line x1="0.000115555556" y1="16.8370222" x2="5.77789333" y2="16.8370222" id="Stroke-7" stroke-width="1.097"></line>
                        <line x1="27.8963822" y1="16.8370222" x2="33.67416" y2="16.8370222" id="Stroke-9" stroke-width="1.097"></line>
                        <path d="M17.8424711,16.0288267 L12.0150044,11.9427822 L16.0987378,17.77256 C16.5806044,18.2532711 17.3606044,18.2532711 17.8424711,17.77256 C18.3243378,17.2906933 18.3243378,16.5106933 17.8424711,16.0288267 Z" id="Stroke-11" stroke-width="1.5"></path>
                    </g>
                </g>
            </g>
        </g>
    </g>
</svg>