<svg width="48" height="48" viewBox="0 0 28 25" fill="none" xmlns="http://www.w3.org/2000/svg">
<path d="M12 2.5C9.9233 2.5 7.89323 3.11581 6.16652 4.26957C4.4398 5.42332 3.09399 7.0632 2.29927 8.98182C1.50455 10.9004 1.29661 13.0116 1.70176 15.0484C2.1069 17.0852 3.10693 18.9562 4.57538 20.4246C6.04384 21.8931 7.91476 22.8931 9.95156 23.2982C11.9884 23.7034 14.0996 23.4955 16.0182 22.7007C17.9368 21.906 19.5767 20.5602 20.7304 18.8335C21.8842 17.1068 22.5 15.0767 22.5 13C22.4969 10.2162 21.3896 7.5473 19.4212 5.57884C17.4527 3.61039 14.7838 2.50314 12 2.5ZM15.75 4.82913C16.5442 5.19532 17.2809 5.67521 17.9369 6.25367L17.6276 7H15.75V4.82913ZM10.0338 21.777C8.41089 21.4163 6.91989 20.6124 5.72682 19.4546C4.53375 18.2968 3.68542 16.8306 3.27627 15.2192C2.86713 13.6079 2.91323 11.9146 3.40943 10.3278C3.90564 8.74112 4.83248 7.32324 6.08678 6.23207L7.09861 7.75H9.60533L8.48033 10.75H5.45948L4.42253 13.8606L6.34861 16.75H10.0986L11.1725 18.3606L10.0338 21.777ZM12 22C11.8475 22 11.6988 21.985 11.5481 21.9775L12.5957 18.835C12.6685 18.6185 12.6906 18.3881 12.6602 18.1617C12.6299 17.9352 12.5479 17.7188 12.4206 17.5291L11.3467 15.9185C11.2099 15.7127 11.0244 15.544 10.8067 15.4274C10.5889 15.3107 10.3456 15.2498 10.0986 15.25H7.1511L6.07748 13.6394L6.54053 12.25H8.25001V13.75H9.75001V11.6359L11.9522 5.7634L10.5478 5.23675L10.1678 6.25H7.90141L7.296 5.34183C8.32205 4.70136 9.46855 4.27814 10.6646 4.0983C11.8607 3.91846 13.081 3.98583 14.25 4.29625V7C14.2505 7.39767 14.4087 7.77891 14.6899 8.06011C14.9711 8.34131 15.3523 8.4995 15.75 8.5H17.6893C17.8864 8.50055 18.0816 8.462 18.2637 8.38657C18.4457 8.31114 18.6111 8.20034 18.75 8.06057L18.8555 7.95505L19.0668 7.44505C19.6722 8.21431 20.1479 9.07733 20.475 10H16.949C16.5944 9.99887 16.2509 10.1239 15.98 10.3526C15.7091 10.5814 15.5283 10.899 15.47 11.2487L15.0225 13.8298C14.9683 14.1355 15.0107 14.4505 15.144 14.7309C15.2772 15.0113 15.4945 15.2432 15.7658 15.3943L17.3893 16.4922L18.4832 19.2267C17.646 20.103 16.6399 20.8006 15.5256 21.2772C14.4113 21.7539 13.212 21.9998 12 22ZM18.6109 15.5078L16.575 14.1316L16.5 14.0866L16.949 11.5H20.8645C21.2574 13.7129 20.7894 15.9922 19.5564 17.8713L18.6109 15.5078Z" fill="#277AFF"/>
<g clip-path="url(#clip0_1765_15070)">
<mask id="path-2-outside-1_1765_15070" maskUnits="userSpaceOnUse" x="12.875" y="0.1875" width="16" height="14" fill="black">
<rect fill="white" x="12.875" y="0.1875" width="16" height="14"/>
<path fill-rule="evenodd" clip-rule="evenodd" d="M21 2.1875C23.2924 2.1875 25.4927 3.08981 27.125 4.69931V4.70019L26.5061 5.31916C25.0375 3.87239 23.0584 3.06178 20.9969 3.0626C18.9353 3.06342 16.9569 3.8756 15.4894 5.32354L14.875 4.70915V4.69931C16.5073 3.08981 18.7076 2.1875 21 2.1875ZM16.7252 6.55926L17.3436 7.17766C18.3201 6.22306 19.6312 5.68821 20.9968 5.68739C22.3623 5.68658 23.6741 6.21986 24.6517 7.17329L25.27 6.55497C24.1285 5.43727 22.5942 4.81168 20.9966 4.8125C19.399 4.81332 17.8654 5.44048 16.7251 6.55934L16.7252 6.55926ZM18.5807 8.41466L18.5806 8.41462V8.4147L18.5807 8.41466ZM18.5807 8.41466L19.1991 9.03285C19.6839 8.57113 20.3275 8.31326 20.997 8.31251C21.6665 8.31175 22.3107 8.56816 22.7966 9.02878L23.415 8.41033C22.7652 7.78539 21.8985 7.43669 20.9969 7.4375C20.0954 7.43832 19.2293 7.78858 18.5807 8.41466ZM21.875 10.9375C21.875 11.4207 21.4832 11.8125 21 11.8125C20.5168 11.8125 20.125 11.4207 20.125 10.9375C20.125 10.4543 20.5168 10.0625 21 10.0625C21.4832 10.0625 21.875 10.4543 21.875 10.9375Z"/>
</mask>
<path fill-rule="evenodd" clip-rule="evenodd" d="M21 2.1875C23.2924 2.1875 25.4927 3.08981 27.125 4.69931V4.70019L26.5061 5.31916C25.0375 3.87239 23.0584 3.06178 20.9969 3.0626C18.9353 3.06342 16.9569 3.8756 15.4894 5.32354L14.875 4.70915V4.69931C16.5073 3.08981 18.7076 2.1875 21 2.1875ZM16.7252 6.55926L17.3436 7.17766C18.3201 6.22306 19.6312 5.68821 20.9968 5.68739C22.3623 5.68658 23.6741 6.21986 24.6517 7.17329L25.27 6.55497C24.1285 5.43727 22.5942 4.81168 20.9966 4.8125C19.399 4.81332 17.8654 5.44048 16.7251 6.55934L16.7252 6.55926ZM18.5807 8.41466L18.5806 8.41462V8.4147L18.5807 8.41466ZM18.5807 8.41466L19.1991 9.03285C19.6839 8.57113 20.3275 8.31326 20.997 8.31251C21.6665 8.31175 22.3107 8.56816 22.7966 9.02878L23.415 8.41033C22.7652 7.78539 21.8985 7.43669 20.9969 7.4375C20.0954 7.43832 19.2293 7.78858 18.5807 8.41466ZM21.875 10.9375C21.875 11.4207 21.4832 11.8125 21 11.8125C20.5168 11.8125 20.125 11.4207 20.125 10.9375C20.125 10.4543 20.5168 10.0625 21 10.0625C21.4832 10.0625 21.875 10.4543 21.875 10.9375Z" fill="#277AFF"/>
<path d="M27.125 4.69931H28.625V4.07179L28.1782 3.6312L27.125 4.69931ZM27.125 4.70019L28.1857 5.76077L28.625 5.32144V4.70019H27.125ZM26.5061 5.31916L25.4534 6.38775L26.5141 7.43263L27.5668 6.37975L26.5061 5.31916ZM20.9969 3.0626L20.9974 4.5626L20.9969 3.0626ZM15.4894 5.32354L14.4287 6.3842L15.4823 7.43777L16.5429 6.39129L15.4894 5.32354ZM14.875 4.70915H13.375V5.33047L13.8143 5.76981L14.875 4.70915ZM14.875 4.69931L13.8218 3.6312L13.375 4.07179V4.69931H14.875ZM17.3436 7.17766L16.283 8.23836L17.3317 9.287L18.3922 8.25027L17.3436 7.17766ZM16.7252 6.55926L17.7858 5.49856L16.9152 4.62797L15.8916 5.31223L16.7252 6.55926ZM20.9968 5.68739L20.9959 4.18739L20.9968 5.68739ZM24.6517 7.17329L23.6044 8.24715L24.6649 9.28141L25.7123 8.23395L24.6517 7.17329ZM25.27 6.55497L26.3307 7.61563L27.4026 6.54372L26.3194 5.48318L25.27 6.55497ZM20.9966 4.8125L20.9959 3.3125H20.9959L20.9966 4.8125ZM16.7251 6.55934L15.6745 5.48863L17.5587 7.80637L16.7251 6.55934ZM18.5806 8.41462L19.6413 7.35396L17.0806 4.7933V8.41462H18.5806ZM18.5806 8.4147H17.0806V11.9537L19.6238 9.49261L18.5806 8.4147ZM19.1991 9.03285L18.1386 10.0937L19.1737 11.1284L20.2335 10.1191L19.1991 9.03285ZM22.7966 9.02878L21.7646 10.1173L22.8245 11.1222L23.8573 10.0894L22.7966 9.02878ZM23.415 8.41033L24.4757 9.47095L25.5572 8.38941L24.4548 7.3292L23.415 8.41033ZM20.9969 7.4375L20.9956 5.9375L20.9969 7.4375ZM28.1782 3.6312C26.2651 1.74496 23.6866 0.6875 21 0.6875V3.6875C22.8982 3.6875 24.7202 4.43466 26.0718 5.76742L28.1782 3.6312ZM28.625 4.70019V4.69931H25.625V4.70019H28.625ZM27.5668 6.37975L28.1857 5.76077L26.0643 3.6396L25.4454 4.25858L27.5668 6.37975ZM20.9974 4.5626C22.6649 4.56194 24.2656 5.21757 25.4534 6.38775L27.5588 4.25057C25.8094 2.52721 23.452 1.56163 20.9963 1.5626L20.9974 4.5626ZM16.5429 6.39129C17.7298 5.22017 19.33 4.56326 20.9974 4.5626L20.9963 1.5626C18.5406 1.56358 16.1839 2.53103 14.4359 4.25578L16.5429 6.39129ZM13.8143 5.76981L14.4287 6.3842L16.55 4.26288L15.9357 3.64849L13.8143 5.76981ZM13.375 4.69931V4.70915H16.375V4.69931H13.375ZM21 0.6875C18.3134 0.6875 15.7349 1.74496 13.8218 3.6312L15.9282 5.76742C17.2798 4.43466 19.1018 3.6875 21 3.6875V0.6875ZM18.4043 6.11697L17.7858 5.49856L15.6646 7.61995L16.283 8.23836L18.4043 6.11697ZM20.9959 4.18739C19.2387 4.18845 17.5516 4.87669 16.2951 6.10506L18.3922 8.25027C19.0886 7.56944 20.0237 7.18798 20.9977 7.18739L20.9959 4.18739ZM25.699 6.09943C24.441 4.87256 22.7531 4.18634 20.9959 4.18739L20.9977 7.18739C21.9716 7.18681 22.9071 7.56715 23.6044 8.24715L25.699 6.09943ZM24.2093 5.49431L23.591 6.11263L25.7123 8.23395L26.3307 7.61563L24.2093 5.49431ZM20.9974 6.3125C22.2024 6.31188 23.3596 6.78373 24.2206 7.62676L26.3194 5.48318C24.8974 4.09081 22.9861 3.31148 20.9959 3.3125L20.9974 6.3125ZM17.7756 7.63006C18.6357 6.78615 19.7924 6.31312 20.9974 6.3125L20.9959 3.3125C19.0057 3.31352 17.0952 4.0948 15.6745 5.48863L17.7756 7.63006ZM15.8916 5.31223L15.8914 5.31232L17.5587 7.80637L17.5588 7.80629L15.8916 5.31223ZM17.52 9.47528L17.52 9.47532L19.6413 7.354L19.6413 7.35396L17.52 9.47528ZM20.0806 8.4147V8.41462H17.0806V8.4147H20.0806ZM17.5375 7.33676L17.5375 7.3368L19.6238 9.49261L19.6238 9.49256L17.5375 7.33676ZM20.2595 7.972L19.6411 7.35381L17.5202 9.47551L18.1386 10.0937L20.2595 7.972ZM20.9953 6.81251C19.9413 6.8137 18.9279 7.21969 18.1646 7.94662L20.2335 10.1191C20.4399 9.92257 20.7138 9.81283 20.9987 9.8125L20.9953 6.81251ZM23.8286 7.94022C23.0637 7.21501 22.0494 6.81131 20.9953 6.81251L20.9987 9.8125C21.2836 9.81218 21.5578 9.92131 21.7646 10.1173L23.8286 7.94022ZM22.3543 7.34971L21.7359 7.96815L23.8573 10.0894L24.4757 9.47095L22.3543 7.34971ZM20.9983 8.9375C21.5117 8.93704 22.0052 9.1356 22.3752 9.49146L24.4548 7.3292C23.5252 6.43518 22.2853 5.93633 20.9956 5.9375L20.9983 8.9375ZM19.6224 9.49393C19.9918 9.13741 20.4849 8.93797 20.9983 8.9375L20.9956 5.9375C19.7059 5.93867 18.4669 6.43974 17.5389 7.33539L19.6224 9.49393ZM21 13.3125C22.3117 13.3125 23.375 12.2492 23.375 10.9375H20.375C20.375 10.5923 20.6548 10.3125 21 10.3125V13.3125ZM18.625 10.9375C18.625 12.2492 19.6883 13.3125 21 13.3125V10.3125C21.3452 10.3125 21.625 10.5923 21.625 10.9375H18.625ZM21 8.5625C19.6883 8.5625 18.625 9.62582 18.625 10.9375H21.625C21.625 11.2827 21.3452 11.5625 21 11.5625V8.5625ZM23.375 10.9375C23.375 9.62582 22.3117 8.5625 21 8.5625V11.5625C20.6548 11.5625 20.375 11.2827 20.375 10.9375H23.375Z" fill="#F6F6F6" mask="url(#path-2-outside-1_1765_15070)"/>
</g>
<defs>
<clipPath id="clip0_1765_15070">
<rect width="14" height="14" fill="white" transform="translate(14)"/>
</clipPath>
</defs>
</svg>
