<svg width="32" height="34" viewBox="0 0 32 34" fill="none" xmlns="http://www.w3.org/2000/svg">
<rect width="31.5652" height="32.5217" transform="translate(0.324219 0.884766)" fill="white" style="mix-blend-mode:multiply"/>
<path d="M26.6315 4.9502H5.58146C5.23431 4.95285 4.90212 5.09612 4.65664 5.34903C4.41116 5.60195 4.27211 5.94421 4.26953 6.30188V27.9898C4.27211 28.3475 4.41116 28.6897 4.65664 28.9427C4.90212 29.1956 5.23431 29.3388 5.58146 29.3415H16.9153V19.9102H13.8377V16.221H16.9153V13.5075C16.9153 10.3569 18.7797 8.63938 21.5219 8.63938C22.4393 8.63938 23.3566 8.63938 24.274 8.78166V12.0643H22.3899C20.9005 12.0643 20.6144 12.7961 20.6144 13.8632V16.2108H24.1655L23.7019 19.9H20.6144V29.3415H26.6315C26.9787 29.3388 27.3109 29.1956 27.5563 28.9427C27.8018 28.6897 27.9409 28.3475 27.9434 27.9898V6.30188C27.9409 5.94421 27.8018 5.60195 27.5563 5.34903C27.3109 5.09612 26.9787 4.95285 26.6315 4.9502Z" fill="white"/>
</svg>
