<svg width="240" height="55" viewBox="0 0 240 55" fill="none" xmlns="http://www.w3.org/2000/svg">
<path d="M26.4107 10.8865V12.7723L20.384 13.1578C21.992 15.195 22.8028 17.4387 22.8028 19.8751C22.8028 22.7382 21.8704 25.0507 20.0056 26.8264C18.1409 28.6021 15.6275 29.483 12.479 29.483C11.1548 29.483 10.2224 29.428 9.69542 29.3178C8.64142 29.8822 7.83066 30.5429 7.27664 31.3138C6.72261 32.0846 6.43884 32.883 6.43884 33.7502C6.43884 34.6999 6.79018 35.3882 7.49284 35.8287C8.1955 36.2692 9.38462 36.4894 11.0467 36.4894H16.141C19.303 36.4894 21.7218 37.1363 23.4109 38.444C25.0864 39.7517 25.9377 41.665 25.9377 44.2253C25.9377 47.3637 24.6946 49.7726 22.1947 51.4794C19.6949 53.1863 16.1545 54.0397 11.5332 54.0397C7.8712 54.0397 5.03352 53.324 3.02012 51.8786C1.00672 50.4333 0.0067749 48.4374 0.0067749 45.8633C0.0067749 43.8261 0.628361 42.133 1.87153 40.7841C3.11471 39.4351 4.8038 38.5128 6.9253 38.0311C6.04698 37.6456 5.34431 37.1088 4.81731 36.4068C4.29032 35.7048 4.02006 34.9064 4.02006 33.9842C4.02006 32.002 5.26323 30.2539 7.74958 28.7397C6.04697 28.0239 4.72273 26.909 3.77683 25.3948C2.83094 23.8807 2.35799 22.1325 2.35799 20.1641C2.35799 17.1909 3.27686 14.8096 5.12811 13.0201C6.97935 11.2307 9.47921 10.3359 12.6277 10.3359C14.5465 10.3359 16.0194 10.5286 17.0734 10.9141H26.4107V10.8865ZM2.80391 45.6018C2.80391 49.6762 5.77672 51.7272 11.7358 51.7272C19.3841 51.7272 23.2082 49.2358 23.2082 44.2666C23.2082 42.4772 22.6136 41.1832 21.411 40.3849C20.2083 39.5865 18.276 39.1873 15.587 39.1873H10.817C5.46593 39.1873 2.80391 41.3209 2.80391 45.6018ZM5.03352 20.1504C5.03352 22.4491 5.72267 24.2248 7.08746 25.4912C8.45224 26.7576 10.2765 27.3907 12.5736 27.3907C15.0059 27.3907 16.8707 26.7576 18.1679 25.5049C19.4651 24.2523 20.1138 22.4216 20.1138 20.0402C20.1138 17.5075 19.4516 15.6079 18.1139 14.3415C16.7761 13.0752 14.9249 12.442 12.5196 12.442C10.1143 12.442 8.37117 13.1165 7.03341 14.4792C5.69564 15.8419 5.03352 17.7277 5.03352 20.1504Z" fill="#474747"/>
<path d="M31.059 2.63888C31.059 0.890724 31.6265 0.00976562 32.7481 0.00976562C33.3021 0.00976562 33.7345 0.24377 34.0453 0.698014C34.3561 1.15226 34.5182 1.79921 34.5182 2.63888C34.5182 3.47854 34.3561 4.09796 34.0453 4.57974C33.7345 5.04775 33.3021 5.29552 32.7481 5.29552C31.6265 5.29552 31.059 4.41456 31.059 2.65264V2.63888ZM34.0858 40.5751H31.4373V10.8841H34.0858V40.5751Z" fill="#474747"/>
<path d="M64.9893 10.8865V12.7723L58.9626 13.1578C60.5706 15.195 61.3814 17.4387 61.3814 19.8751C61.3814 22.7382 60.449 25.0507 58.5843 26.8264C56.7195 28.6021 54.2061 29.483 51.0577 29.483C49.7334 29.483 48.801 29.428 48.274 29.3178C47.22 29.8822 46.4093 30.5429 45.8552 31.3138C45.3012 32.0846 45.0175 32.883 45.0175 33.7502C45.0175 34.6999 45.3688 35.3882 46.0715 35.8287C46.7741 36.2692 47.9632 36.4894 49.6253 36.4894H54.7196C57.8816 36.4894 60.3004 37.1363 61.9895 38.444C63.6651 39.7517 64.5164 41.665 64.5164 44.2253C64.5164 47.3637 63.2732 49.7726 60.7733 51.4794C58.2735 53.1863 54.7331 54.0397 50.1118 54.0397C46.4498 54.0397 43.6121 53.324 41.5987 51.8786C39.5853 50.4333 38.5854 48.4374 38.5854 45.8633C38.5854 43.8261 39.207 42.133 40.4501 40.7841C41.6933 39.4351 43.3824 38.5128 45.5039 38.0311C44.6256 37.6456 43.9229 37.1088 43.3959 36.4068C42.8689 35.7048 42.5987 34.9064 42.5987 33.9842C42.5987 32.002 43.8419 30.2539 46.3282 28.7397C44.6256 28.0239 43.3013 26.909 42.3554 25.3948C41.4096 23.8807 40.9366 22.1325 40.9366 20.1641C40.9366 17.1909 41.8555 14.8096 43.7067 13.0201C45.558 11.2307 48.0578 10.3359 51.2063 10.3359C53.1251 10.3359 54.598 10.5286 55.652 10.9141H64.9893V10.8865ZM41.396 45.6018C41.396 49.6762 44.3688 51.7272 50.328 51.7272C57.9762 51.7272 61.8003 49.2358 61.8003 44.2666C61.8003 42.4772 61.2057 41.1832 60.0031 40.3849C58.8005 39.5865 56.8681 39.1873 54.1791 39.1873H49.4091C44.0581 39.1873 41.396 41.3209 41.396 45.6018ZM43.6256 20.1504C43.6256 22.4491 44.3148 24.2248 45.6796 25.4912C47.0444 26.7576 48.8686 27.3907 51.1658 27.3907C53.5981 27.3907 55.4628 26.7576 56.76 25.5049C58.0573 24.2523 58.7059 22.4216 58.7059 20.0402C58.7059 17.5075 58.0438 15.6079 56.706 14.3415C55.3682 13.0752 53.517 12.442 51.1117 12.442C48.7064 12.442 46.9633 13.1165 45.6255 14.4792C44.2878 15.8419 43.6256 17.7277 43.6256 20.1504Z" fill="#474747"/>
<path d="M87.3665 40.5735L86.6908 35.8796H86.4746C85.0153 37.793 83.5018 39.1419 81.9614 39.9403C80.4209 40.7387 78.5832 41.1241 76.4752 41.1241C73.6105 41.1241 71.3944 40.3808 69.7999 38.8804C68.2054 37.3938 67.4081 35.3153 67.4081 32.6862C67.4081 29.7955 68.5973 27.5381 70.962 25.9413C73.3267 24.3446 76.759 23.4912 81.2452 23.3948L86.7989 23.2296V21.2612C86.7989 18.4394 86.2314 16.3058 85.1099 14.8743C83.9883 13.4427 82.1641 12.7132 79.6642 12.7132C76.9617 12.7132 74.1645 13.484 71.2728 15.0119L70.2864 12.6581C73.4889 11.1302 76.6509 10.3594 79.7723 10.3594C82.8938 10.3594 85.3666 11.2128 86.9476 12.9059C88.5286 14.599 89.3258 17.2419 89.3258 20.8208V40.5735H87.3665ZM76.6374 38.6602C79.7453 38.6602 82.2046 37.7517 84.0018 35.9485C85.799 34.1453 86.6908 31.6125 86.6908 28.3915V25.4733L81.5965 25.6936C77.5022 25.9 74.5834 26.547 72.8403 27.6482C71.0971 28.7494 70.2323 30.47 70.2323 32.7963C70.2323 34.6546 70.7863 36.0999 71.9079 37.1323C73.0294 38.1646 74.5969 38.6739 76.6374 38.6739V38.6602Z" fill="#474747"/>
<path d="M127.756 40.5756H119.581V22.7362C119.581 20.5338 119.216 18.882 118.5 17.7808C117.77 16.6796 116.635 16.129 115.081 16.129C112.987 16.129 111.473 16.9136 110.528 18.4829C109.582 20.0521 109.109 22.6261 109.109 26.2188V40.5894H100.934V10.0312H107.176L108.271 13.9404H108.73C109.541 12.5364 110.703 11.4352 112.217 10.6506C113.73 9.85222 115.473 9.4668 117.446 9.4668C121.932 9.4668 124.973 10.9534 126.567 13.9404H127.297C128.108 12.5226 129.283 11.4214 130.851 10.6368C132.418 9.85222 134.175 9.4668 136.148 9.4668C139.539 9.4668 142.12 10.3478 143.864 12.1234C145.607 13.8991 146.472 16.7485 146.472 20.6577V40.5756H138.269V22.7362C138.269 20.5338 137.904 18.882 137.188 17.7808C136.459 16.6796 135.323 16.129 133.77 16.129C131.77 16.129 130.27 16.8586 129.283 18.3177C128.297 19.7768 127.797 22.0893 127.797 25.2552V40.5756H127.756Z" fill="#474747"/>
<path d="M172.416 40.5742L170.835 36.4171H170.618C169.24 38.1791 167.821 39.4041 166.362 40.0924C164.902 40.7806 163.011 41.111 160.659 41.111C157.781 41.111 155.511 40.2713 153.863 38.592C152.214 36.9127 151.376 34.5313 151.376 31.4342C151.376 28.3371 152.484 25.8043 154.714 24.2627C156.943 22.721 160.295 21.8676 164.781 21.7024L169.983 21.5372V20.202C169.983 17.1049 168.429 15.5632 165.321 15.5632C162.93 15.5632 160.105 16.3065 156.876 17.7794L154.173 12.1495C157.619 10.305 161.443 9.39648 165.646 9.39648C169.848 9.39648 172.753 10.2912 174.902 12.0669C177.05 13.8563 178.118 16.568 178.118 20.202V40.5466H172.402L172.416 40.5742ZM169.997 26.4238L166.835 26.5339C164.457 26.6027 162.686 27.0432 161.524 27.8416C160.362 28.6399 159.781 29.865 159.781 31.503C159.781 33.8568 161.105 35.0269 163.754 35.0269C165.646 35.0269 167.159 34.4763 168.294 33.3613C169.429 32.2463 169.997 30.7735 169.997 28.9428V26.4238Z" fill="#474747"/>
<path d="M201.59 41.1262C198.063 41.1262 195.306 39.8186 193.307 37.217H192.874C193.158 39.7635 193.307 41.2364 193.307 41.6355V54.0103H185.131V10.0312H191.78L192.928 13.9955H193.307C195.225 10.9672 198.05 9.4668 201.806 9.4668C205.346 9.4668 208.117 10.8571 210.116 13.6513C212.116 16.4319 213.116 20.3136 213.116 25.2552C213.116 28.5175 212.643 31.3531 211.711 33.7482C210.779 36.1571 209.441 37.9878 207.698 39.2404C205.968 40.4931 203.928 41.1262 201.59 41.1262ZM199.171 16.129C197.144 16.129 195.671 16.7622 194.752 18.0286C193.82 19.295 193.334 21.3873 193.307 24.2917V25.1864C193.307 28.4625 193.78 30.8163 194.739 32.2341C195.698 33.6519 197.212 34.3676 199.279 34.3676C202.941 34.3676 204.779 31.2843 204.779 25.1313C204.779 22.1306 204.333 19.8731 203.428 18.3727C202.522 16.8724 201.103 16.1153 199.171 16.1153V16.129Z" fill="#474747"/>
<path d="M239.993 31.5044C239.993 34.6428 238.926 37.0242 236.791 38.6622C234.656 40.3003 231.453 41.1262 227.21 41.1262C225.035 41.1262 223.17 40.9747 221.629 40.6719C220.089 40.3691 218.657 39.9286 217.319 39.3505V32.468C218.832 33.1975 220.548 33.8032 222.454 34.2987C224.359 34.7943 226.035 35.042 227.48 35.042C230.453 35.042 231.926 34.1611 231.926 32.4129C231.926 31.7522 231.723 31.2291 231.332 30.8162C230.94 30.4032 230.264 29.9352 229.291 29.4259C228.332 28.9029 227.035 28.2972 225.427 27.6089C223.116 26.6316 221.427 25.7094 220.346 24.8835C219.265 24.0438 218.481 23.0803 217.981 22.0066C217.495 20.9192 217.238 19.584 217.238 18.001C217.238 15.2893 218.265 13.1832 220.332 11.7104C222.4 10.2238 225.318 9.48047 229.115 9.48047C232.913 9.48047 236.237 10.2788 239.655 11.8893L237.183 17.9046C235.683 17.2439 234.277 16.7071 232.967 16.2941C231.656 15.8812 230.332 15.6609 228.967 15.6609C226.548 15.6609 225.345 16.3217 225.345 17.6569C225.345 18.4002 225.737 19.0471 226.508 19.5977C227.278 20.1483 228.994 20.9605 231.615 22.0341C233.953 22.9977 235.669 23.9062 236.764 24.7321C237.858 25.5717 238.655 26.5353 239.182 27.6227C239.696 28.7101 239.966 30.0178 239.966 31.532L239.993 31.5044Z" fill="#474747"/>
</svg>
