<svg xmlns="http://www.w3.org/2000/svg" width="167" height="39" viewBox="0 0 167 39" >
            <path d="M18.3738 8.27426V9.58654L14.18 9.85474C15.2989 11.2724 15.8631 12.8337 15.8631 14.5291C15.8631 16.5215 15.2143 18.1307 13.9167 19.3664C12.619 20.602 10.87 21.215 8.67911 21.215C7.7576 21.215 7.10879 21.1767 6.74206 21.1001C6.00862 21.4928 5.44443 21.9526 5.0589 22.489C4.67337 23.0254 4.4759 23.581 4.4759 24.1844C4.4759 24.8454 4.72038 25.3243 5.20935 25.6308C5.69831 25.9373 6.52579 26.0906 7.68238 26.0906H11.2274C13.4277 26.0906 15.1109 26.5408 16.2863 27.4508C17.4523 28.3607 18.0447 29.6922 18.0447 31.4738C18.0447 33.6577 17.1796 35.334 15.44 36.5218C13.7004 37.7095 11.2368 38.3034 8.02089 38.3034C5.47264 38.3034 3.49797 37.8053 2.0969 36.7995C0.695834 35.7938 0 34.4049 0 32.6137C0 31.196 0.432545 30.0178 1.29764 29.0791C2.16273 28.1404 3.33812 27.4987 4.81442 27.1634C4.20321 26.8952 3.71425 26.5216 3.34752 26.0331C2.9808 25.5446 2.79274 24.989 2.79274 24.3473C2.79274 22.9679 3.65783 21.7515 5.38801 20.6978C4.20321 20.1997 3.2817 19.4238 2.62348 18.3702C1.96526 17.3165 1.63615 16.1 1.63615 14.7303C1.63615 12.6613 2.27556 11.0042 3.5638 9.75895C4.85203 8.51373 6.59161 7.89111 8.78255 7.89111C10.1178 7.89111 11.1427 8.02521 11.8762 8.29342H18.3738V8.27426ZM1.94645 32.4317C1.94645 35.267 4.01515 36.6942 8.16194 36.6942C13.4841 36.6942 16.1452 34.9604 16.1452 31.5025C16.1452 30.2573 15.7315 29.3569 14.8946 28.8014C14.0577 28.2458 12.7131 27.968 10.8418 27.968H7.52252C3.79888 27.968 1.94645 29.4527 1.94645 32.4317ZM3.49797 14.7207C3.49797 16.3203 3.97753 17.556 4.92725 18.4372C5.87697 19.3185 7.1464 19.7591 8.74494 19.7591C10.4375 19.7591 11.7351 19.3185 12.6378 18.4468C13.5405 17.5751 13.9919 16.3012 13.9919 14.6441C13.9919 12.8816 13.5311 11.5597 12.6002 10.6785C11.6693 9.79727 10.3811 9.35665 8.70732 9.35665C7.03356 9.35665 5.82055 9.826 4.88964 10.7743C3.95873 11.7226 3.49797 13.0349 3.49797 14.7207Z" fill="white" />
            <path d="M21.6084 2.53485C21.6084 1.31836 22.0033 0.705322 22.7838 0.705322C23.1693 0.705322 23.4702 0.86816 23.6865 1.18426C23.9028 1.50035 24.0156 1.95055 24.0156 2.53485C24.0156 3.11915 23.9028 3.55019 23.6865 3.88544C23.4702 4.21112 23.1693 4.38353 22.7838 4.38353C22.0033 4.38353 21.6084 3.7705 21.6084 2.54443V2.53485ZM23.7147 28.9337H21.8717V8.27247H23.7147V28.9337Z" fill="white" />
            <path d="M45.2195 8.27426V9.58654L41.0257 9.85474C42.1446 11.2724 42.7088 12.8337 42.7088 14.5291C42.7088 16.5215 42.06 18.1307 40.7624 19.3664C39.4647 20.602 37.7158 21.215 35.5248 21.215C34.6033 21.215 33.9545 21.1767 33.5878 21.1001C32.8543 21.4928 32.2901 21.9526 31.9046 22.489C31.5191 23.0254 31.3216 23.581 31.3216 24.1844C31.3216 24.8454 31.5661 25.3243 32.0551 25.6308C32.544 25.9373 33.3715 26.0906 34.5281 26.0906H38.0731C40.2734 26.0906 41.9566 26.5408 43.132 27.4508C44.298 28.3607 44.8904 29.6922 44.8904 31.4738C44.8904 33.6577 44.0253 35.334 42.2857 36.5218C40.5461 37.7095 38.0825 38.3034 34.8666 38.3034C32.3183 38.3034 30.3437 37.8053 28.9426 36.7995C27.5415 35.7938 26.8457 34.4049 26.8457 32.6137C26.8457 31.196 27.2782 30.0178 28.1433 29.0791C29.0084 28.1404 30.1838 27.4987 31.6601 27.1634C31.0489 26.8952 30.5599 26.5216 30.1932 26.0331C29.8265 25.5446 29.6384 24.989 29.6384 24.3473C29.6384 22.9679 30.5035 21.7515 32.2337 20.6978C31.0489 20.1997 30.1274 19.4238 29.4692 18.3702C28.811 17.3165 28.4819 16.1 28.4819 14.7303C28.4819 12.6613 29.1213 11.0042 30.4095 9.75895C31.6977 8.51373 33.4373 7.89111 35.6283 7.89111C36.9635 7.89111 37.9884 8.02521 38.7219 8.29342H45.2195V8.27426ZM28.8016 32.4317C28.8016 35.267 30.8703 36.6942 35.017 36.6942C40.3392 36.6942 43.0003 34.9604 43.0003 31.5025C43.0003 30.2573 42.5866 29.3569 41.7497 28.8014C40.9128 28.2458 39.5682 27.968 37.6969 27.968H34.3776C30.654 27.968 28.8016 29.4527 28.8016 32.4317ZM30.3531 14.7207C30.3531 16.3203 30.8326 17.556 31.7824 18.4372C32.7321 19.3185 34.0015 19.7591 35.6 19.7591C37.2926 19.7591 38.5902 19.3185 39.4929 18.4468C40.3956 17.5751 40.847 16.3012 40.847 14.6441C40.847 12.8816 40.3862 11.5597 39.4553 10.6785C38.5244 9.79727 37.2362 9.35665 35.5624 9.35665C33.8887 9.35665 32.6757 9.826 31.7447 10.7743C30.8138 11.7226 30.3531 13.0349 30.3531 14.7207Z" fill="white" />
            <path d="M60.7918 28.9324L60.3216 25.6661H60.1712C59.1556 26.9975 58.1025 27.9362 57.0305 28.4918C55.9586 29.0474 54.6797 29.3156 53.2128 29.3156C51.2194 29.3156 49.6773 28.7983 48.5677 27.7542C47.4581 26.7197 46.9033 25.2734 46.9033 23.4438C46.9033 21.4323 47.7308 19.8614 49.3764 18.7503C51.0219 17.6392 53.4103 17.0453 56.5322 16.9782L60.3968 16.8633V15.4935C60.3968 13.5299 60.0019 12.0452 59.2215 11.049C58.441 10.0528 57.1716 9.54518 55.432 9.54518C53.5514 9.54518 51.6049 10.0816 49.5926 11.1448L48.9062 9.50686C51.1347 8.44363 53.3351 7.90723 55.5072 7.90723C57.6793 7.90723 59.4001 8.5011 60.5003 9.67928C61.6005 10.8575 62.1552 12.6966 62.1552 15.187V28.9324H60.7918ZM53.3257 27.601C55.4884 27.601 57.1998 26.9688 58.4504 25.714C59.701 24.4592 60.3216 22.6967 60.3216 20.4553V18.4246L56.7766 18.5779C53.9275 18.7215 51.8964 19.1717 50.6834 19.938C49.4704 20.7043 48.8686 21.9017 48.8686 23.5205C48.8686 24.8136 49.2541 25.8193 50.0346 26.5377C50.815 27.2561 51.9058 27.6106 53.3257 27.6106V27.601Z" fill="white" />
            <path d="M88.8967 28.9339H83.2078V16.52C83.2078 14.9874 82.9539 13.8379 82.4555 13.0717C81.9478 12.3054 81.1579 11.9222 80.0765 11.9222C78.6191 11.9222 77.5659 12.4682 76.9077 13.5602C76.2495 14.6521 75.9204 16.4433 75.9204 18.9434V28.9435H70.2314V7.67886H74.5757L75.3374 10.3992H75.6571C76.2213 9.42218 77.0299 8.65588 78.0831 8.1099C79.1362 7.55434 80.3492 7.28613 81.7221 7.28613C84.8439 7.28613 86.9597 8.32063 88.0692 10.3992H88.577C89.1412 9.4126 89.9593 8.6463 91.05 8.10032C92.1408 7.55434 93.3632 7.28613 94.7361 7.28613C97.0963 7.28613 98.8923 7.89917 100.105 9.13482C101.318 10.3705 101.92 12.3533 101.92 15.0736V28.9339H96.2124V16.52C96.2124 14.9874 95.9585 13.8379 95.4601 13.0717C94.9523 12.3054 94.1625 11.9222 93.0811 11.9222C91.6894 11.9222 90.6457 12.4299 89.9593 13.4452C89.2728 14.4606 88.9249 16.0698 88.9249 18.2729V28.9339H88.8967Z" fill="white" />
            <path d="M119.975 28.933L118.875 26.0402H118.724C117.765 27.2663 116.778 28.1188 115.762 28.5977C114.747 29.0767 113.43 29.3066 111.794 29.3066C109.791 29.3066 108.211 28.7223 107.064 27.5537C105.917 26.3851 105.334 24.728 105.334 22.5728C105.334 20.4176 106.105 18.6551 107.657 17.5823C109.208 16.5095 111.54 15.9156 114.662 15.8006L118.282 15.6857V14.7566C118.282 12.6014 117.201 11.5285 115.038 11.5285C113.374 11.5285 111.408 12.0458 109.161 13.0707L107.28 9.15304C109.678 7.8695 112.339 7.2373 115.264 7.2373C118.188 7.2373 120.21 7.85992 121.705 9.09557C123.2 10.3408 123.943 12.2278 123.943 14.7566V28.9138H119.965L119.975 28.933ZM118.292 19.0861L116.091 19.1628C114.436 19.2106 113.204 19.5172 112.396 20.0727C111.587 20.6283 111.183 21.4808 111.183 22.6207C111.183 24.2586 112.104 25.0728 113.947 25.0728C115.264 25.0728 116.317 24.6896 117.107 23.9138C117.897 23.1379 118.292 22.113 118.292 20.839V19.0861Z" fill="white" />
            <path d="M140.276 29.3171C137.822 29.3171 135.904 28.4071 134.512 26.5967H134.211C134.409 28.3688 134.512 29.3937 134.512 29.6715V38.2827H128.823V7.67886H133.45L134.249 10.4375H134.512C135.847 8.33021 137.813 7.28613 140.427 7.28613C142.89 7.28613 144.818 8.25358 146.21 10.198C147.601 12.1329 148.297 14.8341 148.297 18.2729C148.297 20.543 147.968 22.5162 147.319 24.1829C146.67 25.8592 145.74 27.1331 144.527 28.0048C143.323 28.8765 141.903 29.3171 140.276 29.3171ZM138.593 11.9222C137.183 11.9222 136.158 12.3628 135.518 13.2441C134.869 14.1253 134.531 15.5813 134.512 17.6024V18.225C134.512 20.5047 134.841 22.1427 135.509 23.1293C136.177 24.1159 137.23 24.6139 138.668 24.6139C141.217 24.6139 142.495 22.4683 142.495 18.1867C142.495 16.0985 142.185 14.5276 141.555 13.4835C140.925 12.4395 139.938 11.9126 138.593 11.9126V11.9222Z" fill="white" />
            <path d="M167 22.6215C167 24.8055 166.257 26.4626 164.771 27.6024C163.286 28.7423 161.057 29.317 158.105 29.317C156.591 29.317 155.293 29.2117 154.221 29.0009C153.149 28.7902 152.152 28.4837 151.221 28.0814V23.292C152.275 23.7997 153.469 24.2212 154.795 24.566C156.121 24.9108 157.286 25.0832 158.293 25.0832C160.361 25.0832 161.386 24.4702 161.386 23.2537C161.386 22.7939 161.245 22.43 160.973 22.1426C160.7 21.8552 160.23 21.5296 159.553 21.1752C158.885 20.8112 157.982 20.3897 156.863 19.9108C155.255 19.2307 154.08 18.5889 153.328 18.0142C152.576 17.4299 152.03 16.7594 151.682 16.0122C151.344 15.2555 151.165 14.3264 151.165 13.2249C151.165 11.3379 151.88 9.87232 153.318 8.8474C154.757 7.8129 156.788 7.29565 159.43 7.29565C162.073 7.29565 164.386 7.85122 166.765 8.97192L165.044 13.1578C164 12.698 163.022 12.3245 162.11 12.0371C161.198 11.7497 160.277 11.5965 159.327 11.5965C157.644 11.5965 156.807 12.0563 156.807 12.9854C156.807 13.5026 157.08 13.9528 157.616 14.336C158.152 14.7191 159.346 15.2843 161.17 16.0314C162.797 16.7019 163.991 17.3341 164.753 17.9088C165.514 18.4931 166.069 19.1636 166.436 19.9203C166.793 20.6771 166.981 21.587 166.981 22.6407L167 22.6215Z" fill="white" />
          </svg>