<svg width="33" height="34" viewBox="0 0 33 34" fill="none" xmlns="http://www.w3.org/2000/svg">
<rect width="32.5217" height="32.5217" transform="translate(0.410156 0.884766)" fill="white" style="mix-blend-mode:multiply"/>
<path d="M23.1823 12.0993C23.9905 12.0993 24.6457 11.4441 24.6457 10.6358C24.6457 9.82755 23.9905 9.17233 23.1823 9.17233C22.374 9.17233 21.7188 9.82755 21.7188 10.6358C21.7188 11.4441 22.374 12.0993 23.1823 12.0993Z" fill="white"/>
<path d="M16.6722 10.8832C15.4336 10.8832 14.2228 11.2505 13.1929 11.9386C12.163 12.6268 11.3603 13.6049 10.8863 14.7492C10.4123 15.8936 10.2882 17.1528 10.5299 18.3676C10.7715 19.5825 11.368 20.6984 12.2438 21.5742C13.1197 22.4501 14.2356 23.0465 15.4504 23.2882C16.6653 23.5298 17.9245 23.4058 19.0688 22.9318C20.2132 22.4578 21.1913 21.6551 21.8794 20.6252C22.5676 19.5953 22.9349 18.3845 22.9349 17.1458C22.9349 15.4849 22.2751 13.8919 21.1006 12.7175C19.9261 11.543 18.3332 10.8832 16.6722 10.8832ZM16.6722 21.2111C15.8682 21.2111 15.0822 20.9726 14.4137 20.526C13.7452 20.0793 13.2241 19.4444 12.9164 18.7015C12.6088 17.9587 12.5283 17.1413 12.6851 16.3528C12.842 15.5642 13.2291 14.8398 13.7977 14.2713C14.3662 13.7028 15.0906 13.3156 15.8791 13.1587C16.6677 13.0019 17.4851 13.0824 18.2279 13.3901C18.9707 13.6978 19.6056 14.2188 20.0523 14.8873C20.499 15.5559 20.7374 16.3418 20.7374 17.1458C20.7374 18.224 20.3091 19.258 19.5468 20.0204C18.7844 20.7828 17.7504 21.2111 16.6722 21.2111Z" fill="white"/>
<path d="M16.6722 7.14765C19.9286 7.14765 20.3143 7.16005 21.6003 7.21879C22.3736 7.228 23.1397 7.37004 23.8649 7.63873C24.3908 7.84167 24.8685 8.15244 25.2671 8.55106C25.6657 8.94968 25.9765 9.42732 26.1794 9.95326C26.4481 10.6785 26.5902 11.4445 26.5994 12.2179C26.658 13.5038 26.6705 13.8896 26.6705 17.1459C26.6705 20.4023 26.6581 20.7881 26.5994 22.074C26.5902 22.8474 26.4481 23.6134 26.1794 24.3386C25.9765 24.8646 25.6657 25.3422 25.2671 25.7408C24.8685 26.1395 24.3908 26.4502 23.8649 26.6532C23.1397 26.9219 22.3736 27.0639 21.6003 27.0731C20.3144 27.1317 19.9289 27.1442 16.6722 27.1442C13.4156 27.1442 13.03 27.1319 11.7442 27.0731C10.9708 27.0639 10.2048 26.9219 9.47952 26.6532C8.95359 26.4502 8.47595 26.1395 8.07733 25.7408C7.67871 25.3422 7.36793 24.8646 7.16499 24.3386C6.89631 23.6134 6.75426 22.8474 6.74506 22.074C6.68641 20.7881 6.67391 20.4023 6.67391 17.1459C6.67391 13.8896 6.68631 13.5038 6.74506 12.2179C6.75426 11.4445 6.89631 10.6785 7.16499 9.95326C7.36792 9.4273 7.67869 8.94964 8.07731 8.55101C8.47593 8.15237 8.95358 7.84158 9.47952 7.63863C10.2048 7.36994 10.9708 7.22789 11.7442 7.21869C13.0301 7.16005 13.4159 7.14765 16.6722 7.14765ZM16.6722 4.9502C13.3601 4.9502 12.9447 4.96422 11.6439 5.02357C10.6324 5.04388 9.63156 5.23556 8.68406 5.59047C7.8738 5.90381 7.13793 6.38298 6.52364 6.99727C5.90935 7.61157 5.43017 8.34743 5.11683 9.1577C4.76187 10.1054 4.57019 11.1063 4.54994 12.1181C4.49059 13.4183 4.47656 13.8337 4.47656 17.1458C4.47656 20.458 4.49059 20.8733 4.54994 22.1741C4.5702 23.1859 4.76189 24.1868 5.11683 25.1345C5.43017 25.9448 5.90935 26.6806 6.52364 27.2949C7.13793 27.9092 7.8738 28.3884 8.68406 28.7017C9.63172 29.0567 10.6327 29.2484 11.6445 29.2686C12.9447 29.3275 13.3601 29.3415 16.6722 29.3415C19.9844 29.3415 20.3997 29.3275 21.7005 29.2681C22.7122 29.2479 23.7132 29.0562 24.6609 28.7012C25.4711 28.3879 26.207 27.9087 26.8213 27.2944C27.4356 26.6801 27.9148 25.9443 28.2281 25.134C28.5831 24.1863 28.7747 23.1854 28.795 22.1736C28.8538 20.8733 28.8679 20.458 28.8679 17.1458C28.8679 13.8337 28.8538 13.4183 28.7945 12.1176C28.7742 11.106 28.5825 10.1052 28.2276 9.1577C27.9142 8.34752 27.435 7.61176 26.8207 6.99756C26.2064 6.38335 25.4706 5.90426 24.6604 5.59098C23.7127 5.23603 22.7117 5.04434 21.7 5.02408C20.3997 4.96422 19.9844 4.9502 16.6722 4.9502Z" fill="white"/>
</svg>
