<?xml version="1.0" encoding="UTF-8"?>
<svg width="1em" height="1em" viewBox="0 0 52 52" version="1.1" xmlns="http://www.w3.org/2000/svg" xmlns:xlink="http://www.w3.org/1999/xlink">
    <title>Web/Install icon</title>
    <g id="Page-1" stroke="none" stroke-width="1" fill="none" fill-rule="evenodd">
        <g id="PCDC-Page-Web" transform="translate(-51.000000, -1355.000000)">
            <g id="Group-4" transform="translate(48.000000, 1113.000000)">
                <g id="Install" transform="translate(3.000000, 236.000000)">
                    <g id="Group-4" transform="translate(0.000000, 6.000000)">
                        <polygon id="Fill-1" fill="#151820" points="0 52 52 52 52 0 0 0"></polygon>
                        <path d="M13.3808006,40.8857976 C14.0456785,40.2181871 14.0491294,39.1910059 13.3865521,38.5211052 C12.717073,37.8443336 11.6599401,37.8523495 10.975507,38.5405724 C10.3129297,39.2070377 10.3117794,40.2387994 10.9743567,40.9006842 C11.6530383,41.579746 12.6952172,41.5740204 13.3808006,40.8857976 Z M16.8673836,29.0909638 C19.4647786,26.642677 22.0575724,24.1898096 24.6664705,21.7518289 C24.9103357,21.5239481 24.9321916,21.3430177 24.8447682,21.0395584 C23.786485,17.3969014 24.5134795,14.1722168 27.1936967,11.4422281 C28.7615662,9.84477245 30.6975343,8.97332891 32.9268308,8.75346405 C33.4272147,8.70422348 33.9345004,8.64696701 34.433734,8.67330498 C34.8202374,8.69391732 35.2159433,8.81072052 35.3597318,9.26762719 C35.4977687,9.70621179 35.2987655,10.0234127 35.005437,10.3142755 C34.0989944,11.2143473 33.1948525,12.1167094 32.2895603,13.0179263 C31.8018297,13.5034612 31.3233017,13.9981571 30.8217675,14.4688053 C30.6285158,14.6520261 30.5928562,14.8077637 30.6768287,15.0631275 C31.1553568,16.5185871 31.6016762,17.9843529 32.0859558,19.4363771 C32.1457718,19.6173075 32.3401738,19.8257211 32.5173212,19.8852678 C33.9920158,20.373093 35.4805141,20.8196935 36.956359,21.3052284 C37.2301323,21.3945485 37.3727704,21.310954 37.5476172,21.1357492 C38.8888761,19.7902221 40.2370369,18.4527108 41.5840473,17.1117642 C41.6772222,17.0201538 41.7634953,16.9193824 41.867023,16.8392234 C42.1534497,16.6170683 42.4594315,16.5094261 42.8252294,16.6594381 C43.1852758,16.8071598 43.2853525,17.1037483 43.3083587,17.4427066 C43.4049845,18.8638123 43.2266868,20.249419 42.67799,21.5674631 C40.6879575,26.3506689 35.8210052,28.6100094 30.8332706,27.0961482 C30.6791293,27.0491979 30.408807,27.1098898 30.3029787,27.2221125 C27.99086,29.6772701 25.6971462,32.1473144 23.3965306,34.6116331 C21.9678483,36.1438163 20.5311139,37.6691288 19.1024316,39.200167 C18.1419246,40.2296384 17.164163,41.243078 16.2370149,42.3011776 C14.5460624,44.2284305 12.223591,44.7403034 10.1587884,43.5986093 C7.51653143,42.1374241 6.97473645,38.4649938 9.14306666,36.3648263 C11.3067956,34.2692394 13.5314909,32.2366345 15.7262782,30.1731112 C16.1081804,29.8135405 16.4705274,29.4345027 16.8420768,29.065771 C16.8501289,29.0737869 16.8581811,29.0818028 16.8673836,29.0909638 Z" id="Stroke-2" stroke="#FFFFFF" stroke-width="1.5"></path>
                    </g>
                </g>
            </g>
        </g>
    </g>
</svg>