<svg width="33" height="34" viewBox="0 0 33 34" fill="none" xmlns="http://www.w3.org/2000/svg">
<rect width="31.5652" height="32.5217" transform="translate(0.933594 0.884766)" fill="white" style="mix-blend-mode:multiply"/>
<path d="M26.7773 4.9502H6.65445C5.66804 4.9502 4.87891 5.76324 4.87891 6.67791V27.5122C4.87891 28.4268 5.66804 29.2399 6.65445 29.2399H26.7773C27.7637 29.2399 28.5528 28.4268 28.5528 27.5122V6.67791C28.5528 5.76324 27.7637 4.9502 26.7773 4.9502ZM11.8824 25.6828H8.42999V14.0969H11.8824V25.6828ZM10.2055 12.4708C9.12048 12.4708 8.13407 11.5562 8.13407 10.3366C8.13407 9.11704 9.02184 8.20237 10.2055 8.20237C11.2906 8.20237 12.277 9.11704 12.277 10.3366C12.277 11.5562 11.2906 12.4708 10.2055 12.4708ZM25.1004 25.5812H21.6479V19.8899C21.6479 18.5687 21.6479 16.7393 19.7737 16.7393C17.8996 16.7393 17.7023 18.2638 17.7023 19.6866V25.4795H14.2498V14.0969H17.505V15.6214H17.6036C18.0968 14.7067 19.2805 13.6904 20.9574 13.6904C24.5085 13.6904 25.199 16.1295 25.199 19.2801V25.5812H25.1004Z" fill="white"/>
</svg>
