<?xml version="1.0" encoding="UTF-8"?>
<svg id="Layer_2" data-name="Layer 2" xmlns="http://www.w3.org/2000/svg" viewBox="0 0 109.94 14.09">
  <defs>
    <style>
      .cls-1 {
        fill: #373d46;
      }
    </style>
  </defs>
  <g id="Layer_1-2" data-name="Layer 1">
    <g>
      <path class="cls-1" d="M109.94,9.09c0-1.32-.74-1.91-2.21-2.21-1.47-.29-2.35-.44-2.35-1.47,0-.74,.59-1.18,1.62-1.18,1.32,0,1.77,.59,1.77,1.32l.15,.15h.59l.15-.15c0-1.47-1.18-2.06-2.65-2.06-1.62,0-2.5,.88-2.5,1.91,0,1.18,.88,1.77,2.35,2.06,1.47,.29,2.21,.44,2.21,1.62,0,.74-.44,1.32-1.91,1.32-1.32,0-1.91-.74-1.91-1.62l-.15-.15h-.59l-.15,.15c0,1.32,1.03,2.35,2.8,2.35,1.91,0,2.8-.88,2.8-2.06m-6.33-1.47l.15-.15v-.44c0-2.06-1.18-3.53-3.24-3.53s-3.24,1.47-3.24,3.53v.29c0,2.06,1.03,3.83,3.38,3.83,2.06,0,2.8-1.32,2.94-2.21l-.15-.15h-.59l-.15,.15c-.29,.88-.88,1.47-2.06,1.47-1.91,0-2.5-1.77-2.5-2.65l.15-.15h5.3Zm-.88-.74h-4.41l-.15-.15c0-1.03,.59-2.5,2.35-2.5s2.35,1.47,2.35,2.5l-.15,.15Zm-6.48,3.97V3.79l-.15-.15h-.59l-.15,.15v7.06l.15,.15h.59l.15-.15Zm0-8.54v-.88l-.15-.15h-.59l-.15,.15v.88l.15,.15h.59l.15-.15Zm-5.59,8.09c-1.47,0-2.36-1.03-2.36-3.09s.88-3.09,2.36-3.09,2.35,1.03,2.35,3.09-.88,3.09-2.35,3.09m2.35-.44c0,1.91-.44,3.38-2.21,3.38-1.32,0-1.77-.59-1.91-1.32l-.15-.15h-.59l-.15,.15c.15,1.18,1.03,2.06,2.8,2.06,1.91,0,3.09-1.18,3.09-4.12V3.79l-.15-.15h-.44l-.15,.15-.15,.88h-.15c-.29-.59-1.03-1.18-2.35-1.18-2.06,0-3.09,1.62-3.09,3.83s1.03,3.83,3.09,3.83c1.32,0,2.06-.59,2.35-1.18h.15Zm-9.56-5.74c1.47,0,2.5,1.18,2.5,3.09s-1.03,3.09-2.5,3.09-2.5-1.18-2.5-3.09,1.03-3.09,2.5-3.09m0,6.92c1.91,0,3.38-1.32,3.38-3.83s-1.47-3.83-3.38-3.83-3.38,1.32-3.38,3.83,1.47,3.83,3.38,3.83m-4.42-.29V.85l-.15-.15h-.59l-.15,.15V10.85l.15,.15h.59l.15-.15Zm-5.3-6.62c1.47,0,2.5,1.18,2.5,3.09s-1.03,3.09-2.5,3.09-2.5-1.18-2.5-3.09,1.03-3.09,2.5-3.09m0,6.92c1.91,0,3.38-1.32,3.38-3.83s-1.47-3.83-3.38-3.83-3.38,1.32-3.38,3.83,1.47,3.83,3.38,3.83m-4.27-.29V6.44c0-1.91-1.03-2.94-2.65-2.94-1.03,0-1.91,.44-2.35,1.18h-.15l-.15-.88-.15-.15h-.44l-.15,.15v7.06l.15,.15h.59l.15-.15v-3.97c0-1.62,.74-2.65,2.35-2.65,1.18,0,1.91,.74,1.91,2.21v4.42l.15,.15h.59l.15-.15Zm-7.5,0V6.44c0-1.91-1.03-2.94-2.65-2.94-1.03,0-1.91,.44-2.35,1.18h-.15V.85l-.15-.15h-.59l-.15,.15V10.85l.15,.15h.59l.15-.15v-3.97c0-1.62,.74-2.65,2.35-2.65,1.18,0,1.91,.74,1.91,2.21v4.42l.15,.15h.59l.15-.15Zm-12.65-3.53c0-2.06,1.03-3.09,2.5-3.09s2.06,.88,2.21,1.77l.15,.15h.59l.15-.15c-.15-1.47-1.32-2.5-3.09-2.5-1.91,0-3.38,1.18-3.38,3.83s1.47,3.83,3.38,3.83c1.77,0,2.94-1.03,3.09-2.5l-.15-.15h-.59l-.15,.15c-.15,.88-.74,1.77-2.21,1.77s-2.5-1.03-2.5-3.09m-1.62,.29l.15-.15v-.44c0-2.06-1.18-3.53-3.24-3.53s-3.24,1.47-3.24,3.53v.29c0,2.06,1.03,3.83,3.38,3.83,2.06,0,2.8-1.32,2.94-2.21l-.15-.15h-.59l-.15,.15c-.29,.88-.88,1.47-2.06,1.47-1.91,0-2.5-1.77-2.5-2.65l.15-.15h5.3Zm-.88-.74h-4.41l-.15-.15c0-1.03,.59-2.5,2.35-2.5s2.36,1.47,2.36,2.5l-.15,.15Zm-3.97-5.59v-.44l-.15-.15h-7.65l-.15,.15v.44l.15,.15h3.24l.15,.15V10.85l.15,.15h.59l.15-.15V1.58l.15-.15h3.24l.15-.15Z"/>
      <path class="cls-1" d="M34.9,8.95v2.05h-6.65V.7h2.34V8.95h4.31ZM4.18,11c2.4,0,4.41-1.64,4.99-3.85l5.83,4.55,5.82-4.55v3.85h6.65v-2.05h-4.31V.7h-2.34v3.85l-5.59,4.36-1.25-.98,2.67-2.09,2.91-2.28-1.66-1.3-5.59,4.36-1.25-.98L16.65,1.3l-1.66-1.3-5.83,4.55c-.57-2.22-2.59-3.85-4.99-3.85H0V11H4.18Zm-1.84-2.05V2.75h1.84c1.55,0,2.81,1.39,2.81,3.1s-1.26,3.1-2.81,3.1h-1.84Z"/>
    </g>
  </g>
</svg>