<svg width="194" height="194" viewBox="0 0 194 194" fill="none" xmlns="http://www.w3.org/2000/svg">
<path d="M24.9874 91.9999V78.0849L30.9734 85.4189L36.9484 78.0849V91.9999H38.1724V76.3109H36.9484L30.9734 83.5999L24.9874 76.3109H23.7744V91.9999H24.9874ZM47.9874 92.2019C49.9274 92.2019 51.5074 91.5659 52.7274 90.2929C53.9474 89.0199 54.5574 87.2129 54.5574 84.8689V76.3099H53.3444V84.9349C53.3444 86.8969 52.8484 88.4109 51.8564 89.4779C50.8644 90.5449 49.5754 91.0779 47.9874 91.0779C46.4154 91.0779 45.1334 90.5499 44.1414 89.4949C43.1494 88.4389 42.6534 86.9749 42.6534 85.1029V76.3099H41.4294V85.1479C41.4294 87.3349 42.0394 89.0569 43.2594 90.3139C44.4794 91.5719 46.0564 92.2009 47.9874 92.2009V92.2019ZM61.3074 92.2019C62.5794 92.2019 63.6574 91.7869 64.5414 90.9559C65.4244 90.1249 65.8664 89.1059 65.8664 87.9009C65.8664 86.9949 65.6764 86.2569 65.2934 85.6879C64.9422 85.1471 64.4644 84.7002 63.9014 84.3859C63.3544 84.0859 62.4864 83.7119 61.2954 83.2629C60.1054 82.8129 59.3234 82.3459 58.9484 81.8589C58.5811 81.3915 58.3833 80.8133 58.3874 80.2189C58.3874 79.3729 58.7034 78.6639 59.3364 78.0909C59.9684 77.5179 60.7564 77.2309 61.7004 77.2309C62.6804 77.2309 63.8524 77.6319 65.2154 78.4339V77.0969C64.0174 76.4379 62.8084 76.1089 61.5874 76.1089C60.3454 76.1089 59.2814 76.5149 58.3974 77.3269C57.5144 78.1399 57.0734 79.1219 57.0734 80.2749C57.0734 81.1059 57.2544 81.7849 57.6174 82.3139C57.9814 82.8419 58.4224 83.2479 58.9434 83.5319C59.4634 83.8169 60.3304 84.1919 61.5434 84.6549C62.7554 85.1189 63.5604 85.6189 63.9574 86.1549C64.3488 86.6736 64.558 87.3071 64.5524 87.9569C64.5524 88.8329 64.2324 89.5719 63.5924 90.1749C62.9524 90.7779 62.1684 91.0789 61.2394 91.0789C60.1244 91.0789 58.8064 90.5209 57.2864 89.4059V90.8319C58.6644 91.7449 60.0054 92.2019 61.3074 92.2019ZM69.7744 91.9999V84.1609L77.9844 91.9999H79.5344L71.3134 84.1389L78.8154 76.3109H77.2994L69.7744 84.1159V76.3109H68.5624V91.9999H69.7744ZM25.0104 118V110.296H31.1984V109.286H25.0104V103.322H31.8724V102.311H23.7974V118H25.0104ZM41.5304 118.202C43.8504 118.202 45.8184 117.422 47.4314 115.861C49.0454 114.3 49.8514 112.4 49.8514 110.161C49.8514 107.915 49.0454 106.011 47.4314 104.451C45.8184 102.889 43.8514 102.109 41.5304 102.109C39.2164 102.109 37.2574 102.889 35.6504 104.45C34.0454 106.011 33.2424 107.915 33.2424 110.161C33.2424 112.4 34.0454 114.3 35.6514 115.861C37.2574 117.421 39.2164 118.202 41.5304 118.202ZM41.5754 117.079C39.6134 117.079 37.9534 116.411 36.5944 115.074C35.2354 113.738 34.5564 112.1 34.5564 110.161C34.5564 108.215 35.2364 106.573 36.5944 105.237C37.9534 103.9 39.6144 103.232 41.5744 103.232C43.5294 103.232 45.1784 103.9 46.5224 105.237C47.8664 106.573 48.5384 108.215 48.5384 110.161C48.5384 112.101 47.8664 113.738 46.5224 115.074C45.1784 116.411 43.5294 117.079 41.5754 117.079ZM59.0384 118.202C60.9784 118.202 62.5574 117.566 63.7784 116.293C64.9984 115.02 65.6084 113.213 65.6084 110.869V102.311H64.3954V110.936C64.3954 112.898 63.8994 114.412 62.9074 115.479C61.9154 116.546 60.6254 117.079 59.0384 117.079C57.4664 117.079 56.1844 116.551 55.1924 115.496C54.2004 114.44 53.7044 112.976 53.7044 111.104V102.311H52.4794V111.149C52.4794 113.336 53.0894 115.058 54.3104 116.315C55.5304 117.573 57.1064 118.202 59.0384 118.202ZM70.0784 118V104.288L81.9934 118H83.0034V102.311H81.7914V116.023L69.8984 102.311H68.8654V118H70.0784ZM92.3254 118C94.9914 118 97.0484 117.26 98.4964 115.782C99.9464 114.303 100.669 112.43 100.669 110.162C100.669 107.848 99.9384 105.961 98.4744 104.501C97.0104 103.041 94.8894 102.311 92.1124 102.311H86.6204V118H92.3254ZM92.2584 116.99H87.8334V103.322H92.1794C94.2984 103.322 96.0244 103.958 97.3564 105.231C98.6894 106.504 99.3564 108.147 99.3564 110.161C99.3564 112.221 98.6804 113.873 97.3284 115.119C95.9774 116.366 94.2874 116.99 92.2584 116.99ZM103.185 118L105.667 112.576H113.327L115.808 118H117.078L109.833 102.199H109.16L101.916 118H103.185ZM112.865 111.565H106.127L109.485 104.175L112.865 111.565ZM124.365 118V103.322H130.25V102.311H117.257V103.321H123.142V118H124.365ZM133.361 118V102.311H132.148V118H133.361ZM144.591 118.202C146.913 118.202 148.88 117.422 150.493 115.861C152.107 114.3 152.913 112.4 152.913 110.161C152.913 107.915 152.107 106.011 150.493 104.451C148.88 102.889 146.913 102.109 144.592 102.109C142.278 102.109 140.319 102.889 138.712 104.45C137.107 106.011 136.304 107.915 136.304 110.161C136.304 112.4 137.107 114.3 138.713 115.861C140.319 117.421 142.277 118.202 144.591 118.202ZM144.637 117.079C142.675 117.079 141.015 116.411 139.656 115.074C138.297 113.738 137.618 112.1 137.618 110.161C137.618 108.215 138.298 106.573 139.656 105.237C141.015 103.9 142.676 103.232 144.636 103.232C146.591 103.232 148.24 103.9 149.584 105.237C150.928 106.573 151.6 108.215 151.6 110.161C151.6 112.101 150.928 113.738 149.584 115.074C148.24 116.411 146.591 117.079 144.637 117.079ZM157.08 118V104.288L168.996 118H170.006V102.311H168.793V116.023L156.9 102.311H155.867V118H157.08Z" fill="#F5F5F5"/>
</svg>
