<svg width="194" height="194" viewBox="0 0 194 194" fill="none" xmlns="http://www.w3.org/2000/svg">
<path fill-rule="evenodd" clip-rule="evenodd" d="M105.356 84.3101H110.511V86.3201C112.229 84.2471 114.271 83.7361 115.957 83.7361C118.259 83.7361 120.431 84.8211 121.663 86.9261C123.51 84.3421 126.266 83.7361 128.211 83.7361C130.901 83.7361 133.235 84.9801 134.5 87.1501C134.921 87.8831 135.667 89.4781 135.667 92.6361V106.066H130.512V94.1041C130.512 91.6791 130.253 90.6901 130.026 90.2441C129.702 89.4141 128.924 88.3301 127.076 88.3301C125.812 88.3301 124.71 89.0001 124.029 89.9251C123.121 91.1691 123.024 93.0191 123.024 94.8691V106.066H117.87V94.1041C117.87 91.6791 117.61 90.6901 117.383 90.2441C117.059 89.4141 116.281 88.3301 114.433 88.3301C113.169 88.3301 112.067 89.0001 111.386 89.9251C110.478 91.1691 110.381 93.0191 110.381 94.8691V106.066H105.356V84.3101ZM87.592 84.3101H92.746V86.2561C93.33 85.5861 94.173 84.8531 94.886 84.4381C95.891 83.8641 96.863 83.7041 98.03 83.7041C99.295 83.7041 100.656 83.8961 102.082 84.7251L99.975 89.3191C98.808 88.5851 97.868 88.5531 97.35 88.5531C96.247 88.5531 95.145 88.7131 94.14 89.7331C92.714 91.2331 92.714 93.3061 92.714 94.7421V106.002H87.559L87.592 84.3101ZM64.284 95.2841C64.284 99.0481 66.683 102.206 70.411 102.206C73.653 102.206 76.667 99.8781 76.667 95.3481C76.667 90.5951 73.685 88.3301 70.411 88.3301C66.683 88.2981 64.284 91.3921 64.284 95.2841ZM76.31 84.3101H81.464V106.034H76.31V103.769C74.04 106.353 71.285 106.704 69.697 106.704C62.889 106.704 58.999 101.122 58.999 95.1561C58.999 88.0751 63.926 83.7361 69.762 83.7361C71.382 83.7361 74.235 84.1511 76.31 86.8311V84.3101Z" fill="#F5F5F5"/>
</svg>
