<svg width="194" height="194" viewBox="0 0 194 194" fill="none" xmlns="http://www.w3.org/2000/svg">
<path fill-rule="evenodd" clip-rule="evenodd" d="M12 92.48C12.512 91.671 13.31 91.736 14.088 91.839C15.308 92.001 16.455 92.436 17.601 92.861C19.106 93.421 20.572 94.077 22.094 94.591C22.4909 94.7283 22.8996 94.8284 23.315 94.89C23.517 94.919 23.738 94.916 23.841 94.713C23.941 94.515 23.781 94.364 23.651 94.233C23.153 93.732 22.516 93.453 21.893 93.154C20.479 92.477 19.013 91.914 17.621 91.187C16.941 90.832 16.271 90.462 15.704 89.935C15.495 89.74 15.304 89.53 15.185 89.266C14.833 88.491 15.315 87.703 16.169 87.651C16.864 87.608 17.515 87.796 18.155 88.029C20.135 88.752 21.955 89.809 23.82 90.769C24.732 91.238 25.649 91.694 26.608 92.059C26.988 92.205 27.377 92.329 27.793 92.329C28.405 92.333 28.769 91.876 28.623 91.277C28.527 90.884 28.319 90.547 28.075 90.236C27.565 89.584 27.027 88.955 26.535 88.291C25.888 87.421 25.442 86.469 25.546 85.341C25.597 84.791 25.666 84.217 26.201 83.927C26.738 83.636 27.207 83.975 27.631 84.27C28.868 85.13 29.852 86.262 30.885 87.34C32.072 88.577 33.227 89.845 34.453 91.046C35.812 92.376 36.996 93.841 37.713 95.63C38.943 98.696 38.128 101.715 35.511 103.731C33.974 104.915 32.215 105.541 30.296 105.759C28.7825 105.929 27.2504 105.786 25.794 105.341C25.158 105.151 24.517 105.294 23.884 105.351C21.819 105.534 19.764 105.829 17.682 105.754C17.1758 105.739 16.6731 105.665 16.184 105.534C15.9448 105.471 15.718 105.368 15.513 105.229C14.843 104.767 14.873 103.939 15.573 103.533C16.164 103.191 16.823 103.077 17.484 102.987C18.966 102.787 20.462 102.792 21.951 102.687C22.456 102.651 22.96 102.603 23.448 102.46C23.64 102.404 23.858 102.334 23.876 102.106C23.894 101.886 23.709 101.758 23.531 101.666C22.838 101.306 22.074 101.21 21.319 101.089C19.48 100.795 17.617 100.657 15.792 100.271C14.873 100.076 13.959 99.858 13.163 99.318C12.9223 99.1645 12.7258 98.9508 12.593 98.698C12.293 98.095 12.507 97.488 13.133 97.238C13.809 96.97 14.518 97.028 15.219 97.097C17.166 97.287 19.049 97.815 20.96 98.197C21.432 98.291 21.902 98.407 22.388 98.392C22.527 98.388 22.725 98.442 22.766 98.252C22.804 98.074 22.609 98.022 22.486 97.954C22.163 97.771 21.813 97.648 21.463 97.527C19.351 96.797 17.18 96.242 15.112 95.387C14.6098 95.1799 14.1167 94.9513 13.634 94.702C12.98 94.365 12.389 93.944 12 93.294V92.48ZM39.647 65C40.119 65.251 40.351 65.676 40.486 66.167C40.831 67.424 40.795 68.71 40.741 69.992C40.698 71.002 40.616 72.01 40.551 73.019C40.494 73.918 40.441 74.817 40.479 75.719C40.489 75.976 40.523 76.235 40.579 76.487C40.617 76.661 40.671 76.873 40.9 76.89C41.1 76.904 41.201 76.737 41.281 76.583C41.537 76.093 41.625 75.555 41.705 75.019C41.975 73.214 42.053 71.385 42.378 69.587C42.516 68.821 42.685 68.061 43.083 67.377C43.447 66.75 43.997 66.502 44.56 66.712C44.954 66.859 45.167 67.17 45.286 67.548C45.506 68.253 45.538 68.978 45.487 69.709C45.333 71.954 44.857 74.152 44.521 76.37C44.383 77.284 44.247 78.2 44.256 79.129C44.258 79.391 44.297 79.647 44.365 79.896C44.503 80.403 44.881 80.608 45.388 80.466C45.808 80.348 46.088 80.046 46.321 79.712C46.795 79.034 47.237 78.335 47.702 77.652C48.143 77.002 48.66 76.425 49.338 76.012C49.9 75.67 50.513 75.49 51.171 75.517C51.835 75.545 52.137 75.879 52.113 76.54C52.088 77.234 51.799 77.855 51.522 78.474C50.85 79.975 50 81.382 49.226 82.829C48.441 84.299 47.689 85.787 46.866 87.235C46.084 88.608 45.083 89.811 43.784 90.743C41.434 92.427 38.606 92.506 36.145 90.893C33.573 89.208 32.149 86.756 31.555 83.784C31.4477 83.2264 31.3941 82.6598 31.395 82.092C31.395 81.601 31.189 81.155 31.006 80.712C30.343 79.102 29.569 77.541 28.968 75.905C28.658 75.058 28.378 74.203 28.255 73.305C28.201 72.909 28.203 72.515 28.339 72.135C28.583 71.454 29.242 71.235 29.827 71.655C30.432 72.091 30.738 72.751 31.051 73.393C31.776 74.883 32.251 76.475 32.908 77.993C33.041 78.299 33.178 78.603 33.376 78.873C33.498 79.039 33.618 79.253 33.872 79.183C34.111 79.119 34.166 78.89 34.195 78.683C34.2482 78.2544 34.2448 77.8207 34.185 77.393C33.956 75.505 33.491 73.657 33.228 71.776C33.078 70.713 32.934 69.648 33.112 68.572C33.171 68.215 33.267 67.87 33.483 67.575C34.004 66.864 34.841 66.898 35.313 67.65C35.7 68.268 35.873 68.966 36.015 69.668C36.297 71.073 36.415 72.5 36.549 73.924C36.624 74.722 36.689 75.521 36.853 76.308C36.883 76.452 36.923 76.595 36.973 76.734C37.01 76.836 37.048 76.964 37.188 76.954C37.328 76.944 37.354 76.81 37.373 76.707C37.438 76.355 37.486 76.002 37.485 75.642C37.485 73.692 37.467 71.741 37.499 69.791C37.518 68.669 37.606 67.547 37.921 66.459C38.093 65.869 38.318 65.312 38.906 65H39.647Z" fill="#F5F5F5"/>
<mask id="mask0_2936_18760" style="mask-type:luminance" maskUnits="userSpaceOnUse" x="25" y="103" width="24" height="26">
<path d="M25.998 103.498H48.271V128.369H25.998V103.498Z" fill="white"/>
</mask>
<g mask="url(#mask0_2936_18760)">
<path fill-rule="evenodd" clip-rule="evenodd" d="M48.2652 111.291C48.2832 113.49 47.7902 115.396 46.7142 117.098C46.1212 118.035 45.8042 119.023 45.5802 120.078C45.2002 121.863 44.8622 123.659 44.2582 125.388C44.0702 125.926 43.8582 126.453 43.5512 126.934C43.4482 127.102 43.3293 127.26 43.1962 127.406C42.8682 127.751 42.4792 127.938 41.9962 127.766C41.5312 127.601 41.3962 127.198 41.3532 126.769C41.2982 126.202 41.3502 125.637 41.4552 125.075C41.7312 123.592 42.1962 122.158 42.5492 120.695C42.6532 120.265 42.7272 119.825 42.8002 119.388C42.8222 119.258 42.8152 119.115 42.7852 118.985C42.7052 118.635 42.4752 118.548 42.1832 118.76C41.8572 118.997 41.6422 119.333 41.4382 119.672C40.9022 120.562 40.4722 121.505 40.0262 122.442C39.3212 123.922 38.6562 125.425 37.7232 126.787C37.4792 127.144 37.2192 127.488 36.8992 127.783C36.6692 127.993 36.4172 128.171 36.1232 128.278C35.3202 128.573 34.6732 128.123 34.6642 127.273C34.6562 126.494 34.9672 125.805 35.2782 125.12C35.9932 123.544 36.9282 122.087 37.7862 120.588C38.0742 120.084 38.3762 119.588 38.5712 119.038C38.6282 118.875 38.7812 118.662 38.5772 118.536C38.3952 118.426 38.2672 118.638 38.1562 118.755C37.4122 119.537 36.8292 120.442 36.2072 121.316C35.2202 122.704 34.2442 124.102 33.1142 125.381C32.5502 126.02 31.9582 126.634 31.1762 127.021C30.7332 127.239 30.2832 127.343 29.8512 127.01C29.4112 126.67 29.3662 126.204 29.4842 125.705C29.6842 124.857 30.1522 124.143 30.6362 123.441C31.7022 121.894 32.9642 120.501 34.1412 119.041C34.6062 118.465 35.0742 117.888 35.4312 117.236C35.5672 116.989 35.8042 116.669 35.5272 116.431C35.2542 116.197 34.9642 116.47 34.7352 116.636C34.0122 117.162 33.4272 117.836 32.8252 118.489C31.5972 119.821 30.4572 121.242 29.0052 122.352C28.6982 122.586 28.3662 122.772 28.0012 122.9C27.5592 123.055 27.1492 123.03 26.7892 122.708C26.4112 122.37 26.3732 121.937 26.4862 121.482C26.5932 121.046 26.8202 120.661 27.0682 120.29C27.7252 119.311 28.5402 118.465 29.3602 117.628C30.4572 116.508 31.5962 115.431 32.7002 114.318C33.1862 113.828 33.6562 113.319 34.0572 112.753C34.1772 112.583 34.2972 112.407 34.3912 112.221C34.5552 111.901 34.7262 111.565 34.4632 111.216C34.1892 110.852 33.8052 110.767 33.3732 110.826C32.7532 110.908 32.1882 111.159 31.6132 111.383C30.7852 111.707 29.9602 112.037 29.0692 112.157C28.1342 112.283 27.2752 112.09 26.5022 111.549C25.8882 111.12 25.8352 110.561 26.3422 110.014C26.8822 109.434 27.5602 109.051 28.2482 108.686C30.4522 107.516 32.7602 106.562 34.9712 105.406C36.1552 104.786 37.3612 104.222 38.6582 103.878C40.1722 103.477 41.6982 103.325 43.2292 103.763C45.5472 104.425 46.9652 106.015 47.7592 108.228C47.9092 108.646 48.0252 109.075 48.1042 109.513C48.2202 110.158 48.2952 110.807 48.2652 111.291Z" fill="#F5F5F5"/>
</g>
<path fill-rule="evenodd" clip-rule="evenodd" d="M48.8323 106.003C48.8163 104.566 48.9993 103.275 49.5013 102.047C50.4613 99.699 52.2173 98.316 54.7193 97.964C57.6233 97.554 60.1813 98.464 62.4693 100.217C63.2173 100.79 63.8553 101.477 64.4413 102.216C64.9143 102.81 65.6043 103.124 66.2393 103.499C67.8133 104.427 69.4243 105.295 70.8993 106.383C71.4063 106.757 71.8793 107.17 72.2953 107.648C72.4853 107.867 72.6283 108.11 72.7253 108.378C73.0013 109.139 72.4673 109.802 71.6653 109.697C70.7723 109.579 70.0033 109.141 69.2553 108.689C68.0823 107.981 66.9413 107.22 65.7823 106.489C65.4307 106.258 65.0509 106.072 64.6523 105.937C64.4783 105.881 64.2783 105.824 64.1323 105.986C63.9723 106.16 64.0473 106.361 64.1393 106.54C64.5493 107.333 65.1893 107.935 65.8163 108.547C67.3263 110.02 68.9463 111.385 70.2683 113.042C70.7153 113.603 71.1283 114.192 71.2463 114.928C71.3213 115.391 71.1933 115.792 70.8303 116.088C70.4943 116.363 70.1103 116.302 69.7403 116.155C69.0743 115.889 68.5383 115.429 68.0223 114.949C66.7453 113.762 65.6233 112.429 64.4623 111.134C64.0413 110.665 63.6223 110.193 63.1083 109.822C63.0113 109.752 62.8933 109.642 62.7763 109.732C62.6433 109.834 62.7163 109.983 62.7733 110.105C63.1733 110.949 63.7633 111.668 64.3113 112.412C65.4463 113.953 66.6343 115.456 67.5963 117.116C67.9623 117.746 68.2963 118.393 68.4863 119.105C68.5543 119.359 68.5783 119.615 68.5583 119.875C68.5023 120.584 67.9103 120.998 67.2213 120.81C66.8553 120.71 66.5513 120.501 66.2743 120.248C65.5729 119.604 64.9548 118.875 64.4343 118.078C63.3943 116.502 62.3713 114.914 61.3363 113.334C61.0656 112.905 60.7379 112.515 60.3623 112.174C60.2123 112.044 60.0423 111.895 59.8343 112.001C59.5993 112.121 59.6483 112.366 59.6903 112.565C59.8753 113.438 60.3483 114.184 60.7733 114.948C61.6353 116.501 62.6293 117.983 63.2893 119.644C63.4593 120.07 63.5903 120.508 63.6433 120.964C63.7013 121.469 63.6053 121.934 63.1413 122.231C62.6623 122.538 62.1913 122.442 61.7613 122.121C60.9283 121.501 60.4063 120.628 59.8903 119.756C58.9843 118.224 58.2553 116.6 57.4423 115.02C56.9733 114.109 56.5103 113.195 55.9203 112.352C55.7594 112.118 55.5744 111.901 55.3683 111.706C54.8083 111.179 54.1383 111.336 53.8883 112.067C53.7113 112.59 53.7273 113.133 53.7643 113.679C53.8383 114.76 53.9663 115.842 53.7313 116.922C53.5473 117.774 53.1533 118.495 52.4583 119.032C51.7633 119.57 51.1993 119.441 50.8153 118.651C50.3983 117.796 50.2403 116.867 50.1013 115.94C49.6863 113.183 49.4013 110.41 48.9433 107.658C48.8473 107.077 48.7993 106.482 48.8323 106.003ZM48.0753 89.117C48.0833 87.103 48.9283 85.269 50.2493 83.634C51.5843 81.982 53.2713 80.815 55.2823 80.115C55.8573 79.915 56.2713 79.469 56.7123 79.08C58.0263 77.92 59.2953 76.709 60.6893 75.642C61.3563 75.132 62.0413 74.646 62.8333 74.337C63.1003 74.232 63.3743 74.17 63.6633 74.174C64.4733 74.184 64.8983 74.829 64.5533 75.574C64.2413 76.244 63.7293 76.768 63.1893 77.262C62.0243 78.331 60.7363 79.252 59.5463 80.292C59.2663 80.536 58.9993 80.792 58.7923 81.104C58.6973 81.247 58.5843 81.406 58.6903 81.581C58.8053 81.771 59.0123 81.809 59.2143 81.78C59.6193 81.721 60.0033 81.58 60.3773 81.417C61.6833 80.85 62.8913 80.097 64.1493 79.44C65.4833 78.744 66.7952 77.994 68.2843 77.65C68.6252 77.571 68.9703 77.569 69.3153 77.587C69.8013 77.613 70.1773 77.838 70.3603 78.292C70.5293 78.712 70.3803 79.092 70.0913 79.418C69.6093 79.965 68.9933 80.332 68.3713 80.687C67.0363 81.447 65.6103 82.009 64.2133 82.634C63.5263 82.942 62.8233 83.218 62.1893 83.634C62.0873 83.701 61.9793 83.771 61.9023 83.864C61.7883 84.003 61.8293 84.121 62.0103 84.161C62.1843 84.2 62.3543 84.155 62.5223 84.113C64.1563 83.712 65.7193 83.085 67.3223 82.583C68.6893 82.155 70.0573 81.726 71.4863 81.549C72.0253 81.482 72.5723 81.451 73.1053 81.601C73.9973 81.852 74.2303 82.741 73.5973 83.421C73.1103 83.944 72.4753 84.221 71.8373 84.487C70.2113 85.162 68.4923 85.529 66.7973 85.975C65.8053 86.235 64.8073 86.469 63.8523 86.853C63.6323 86.941 63.4203 87.043 63.2413 87.196C62.9833 87.416 63.0263 87.666 63.3443 87.789C63.7143 87.931 64.0982 87.895 64.4792 87.847C66.2703 87.62 68.0083 87.115 69.7863 86.817C70.6283 86.676 71.4733 86.583 72.3293 86.624C72.7433 86.644 73.1393 86.727 73.4743 86.991C73.9803 87.389 74.0433 88.081 73.6173 88.563C73.3073 88.917 72.8953 89.118 72.4683 89.288C71.0103 89.87 69.4663 90.086 67.9303 90.332C66.2603 90.6 64.5773 90.784 62.9283 91.169C62.3753 91.299 61.8203 91.437 61.3323 91.745C60.8353 92.058 60.7723 92.633 61.1773 93.067C61.4013 93.307 61.6813 93.457 61.9893 93.567C62.7013 93.817 63.4383 93.978 64.1633 94.18C65.1713 94.461 66.1403 94.826 66.8633 95.636C67.2403 96.058 67.5283 96.533 67.5933 97.105C67.6583 97.67 67.4443 97.965 66.8913 98.102C66.2703 98.256 65.6383 98.215 65.0123 98.149C62.8723 97.924 60.7813 97.413 58.6643 97.049C57.5453 96.858 56.4193 96.701 55.3073 96.473C53.5333 96.109 51.8713 95.468 50.4573 94.293C48.8813 92.984 48.0673 91.313 48.0753 89.117ZM121.625 83.84C120.993 83.914 120.475 84.216 120.137 84.814C119.991 85.072 120.001 85.295 120.176 85.532C120.537 86.022 120.966 86.445 121.441 86.823C121.581 86.933 121.691 86.94 121.833 86.827C122.339 86.425 122.794 85.977 123.16 85.443C123.245 85.318 123.296 85.193 123.24 85.029C123.047 84.446 122.269 83.853 121.625 83.841M107.282 87.641C107.455 87.641 107.628 87.645 107.8 87.64C108.526 87.617 109.253 87.694 109.977 87.574C110.817 87.434 111.392 86.81 111.379 86.031C111.368 85.333 110.933 84.771 110.151 84.489C107.906 83.679 105.541 85.169 104.786 87.361C104.69 87.637 104.876 87.641 105.064 87.641H107.282ZM104.728 83.871C104.925 83.698 105.109 83.521 105.308 83.362C106.365 82.523 107.575 82.045 108.915 81.979C110.526 81.9 112.703 82.644 113.569 84.493C113.984 85.38 114.039 86.294 113.752 87.231C113.628 87.636 113.635 87.64 114.06 87.641H118.856C118.846 87.448 118.718 87.361 118.623 87.258C118.243 86.8535 117.898 86.4165 117.593 85.952C117.511 85.8383 117.455 85.7078 117.429 85.5698C117.403 85.4319 117.408 85.2898 117.443 85.154C117.749 83.842 118.291 82.684 119.571 82.068C122.254 80.774 125.031 82.079 125.791 84.945C125.912 85.405 125.854 85.772 125.569 86.148C125.196 86.64 124.767 87.083 124.381 87.561C124.481 87.687 124.601 87.638 124.701 87.638C126.073 87.642 127.444 87.642 128.815 87.638C128.974 87.638 129.135 87.62 129.292 87.592C129.875 87.488 130.106 87.234 130.122 86.644C130.138 86.114 130.128 85.583 130.128 85.052V79.165C130.128 78.681 130.131 78.68 130.628 78.679C131.159 78.677 131.69 78.685 132.221 78.676C132.459 78.672 132.549 78.766 132.548 79.003C132.542 81.693 132.578 84.385 132.529 87.074C132.498 88.852 131.298 90.003 129.488 90.04C127.5 90.08 125.511 90.059 123.523 90.044C122.978 90.0339 122.44 89.9107 121.944 89.682C121.857 89.6384 121.761 89.6149 121.664 89.6132C121.566 89.6115 121.47 89.6316 121.381 89.672C120.724 89.948 120.035 90.055 119.321 90.055C112.554 90.051 105.786 90.052 99.0182 90.055C98.6082 90.055 98.2013 90.03 97.8043 89.939C96.5243 89.648 95.6912 88.614 95.5882 87.217C95.4582 85.467 95.5552 83.715 95.5312 81.963C95.5173 81.026 95.5433 80.087 95.5213 79.15C95.5133 78.77 95.6453 78.651 96.0153 78.671C96.5203 78.699 97.0282 78.698 97.5332 78.671C97.9022 78.652 97.9952 78.801 97.9932 79.145C97.9832 81.49 98.0043 83.835 97.9813 86.179C97.9703 87.272 98.1232 87.659 99.4492 87.642C100.289 87.632 101.129 87.626 101.969 87.648C102.307 87.656 102.413 87.555 102.411 87.21C102.398 84.545 102.404 81.879 102.404 79.213C102.404 78.68 102.405 78.679 102.927 78.678C103.433 78.678 103.94 78.691 104.446 78.674C104.739 78.664 104.838 78.772 104.826 79.061C104.77 80.5391 104.72 82.0175 104.676 83.496C104.673 83.612 104.631 83.74 104.728 83.871ZM138.845 115.465C137.301 115.504 135.847 115.175 134.554 114.314C133.097 113.344 132.333 111.94 132.127 110.219C131.967 108.873 132.108 107.562 132.621 106.302C133.255 104.746 134.359 103.646 135.921 103.04C138.12 102.188 140.33 102.204 142.527 103.06C143.107 103.286 143.091 103.297 142.929 103.888C142.832 104.244 142.772 104.61 142.701 104.972C142.677 105.092 142.693 105.229 142.535 105.268C142.393 105.303 142.304 105.213 142.218 105.121C142.1 104.995 141.979 104.871 141.863 104.744C140.446 103.187 137.842 103.37 136.481 104.982C135.8 105.788 135.428 106.728 135.26 107.757C135.07 108.916 135.1 110.065 135.436 111.197C136.333 114.212 139.375 115.112 141.934 113.546C142.133 113.424 142.311 113.269 142.494 113.122C142.603 113.035 142.698 112.939 142.851 113.039C142.993 113.132 142.943 113.255 142.906 113.369C142.781 113.757 142.66 114.144 142.61 114.551C142.582 114.776 142.381 114.826 142.213 114.894C141.133 115.334 140.004 115.489 138.845 115.465ZM86.1463 108.939C86.1463 110.627 86.1163 112.316 86.2093 114.003C86.2243 114.29 86.3242 114.393 86.5892 114.423C87.6192 114.541 88.6493 114.579 89.6852 114.456C91.9302 114.19 93.4413 112.824 93.8973 110.615C94.1303 109.454 94.1462 108.259 93.9443 107.092C93.6353 105.229 92.5233 104.042 90.7952 103.702C89.3493 103.417 87.9002 103.53 86.4512 103.683C86.2762 103.702 86.2243 103.789 86.2173 103.949C86.1983 104.391 86.1533 104.834 86.1503 105.276C86.1403 106.497 86.1463 107.718 86.1463 108.939ZM87.3382 115.237H84.8932C84.3993 115.239 84.3733 115.237 84.4043 114.747C84.5753 112.013 84.5522 109.274 84.5342 106.537C84.5262 105.404 84.4552 104.271 84.3942 103.139C84.3762 102.788 84.4823 102.645 84.8493 102.677C85.7223 102.753 86.5983 102.769 87.4743 102.753C88.4492 102.736 89.4213 102.637 90.3973 102.679C91.4313 102.722 92.4353 102.902 93.3573 103.392C94.8113 104.167 95.5513 105.442 95.8232 107.019C96.0322 108.231 96.0693 109.453 95.7493 110.649C95.0853 113.122 93.4443 114.567 90.9563 115.089C89.7573 115.341 88.5452 115.207 87.3382 115.237ZM148.393 93.022C147.585 92.972 146.568 93.128 145.564 92.942C142.682 92.408 141.483 89.554 142.629 87.05C142.817 86.638 142.844 86.662 143.205 86.927C143.501 87.145 143.545 87.332 143.41 87.691C142.604 89.844 144.071 91.975 146.375 92.011C147.881 92.035 149.388 92.024 150.895 92.011C151.491 92.0037 152.075 91.8458 152.593 91.552C152.9 91.3841 153.164 91.148 153.366 90.8619C153.567 90.5758 153.7 90.2474 153.755 89.9018C153.809 89.5563 153.784 89.2028 153.681 88.8686C153.577 88.5344 153.398 88.2284 153.158 87.974C152.623 87.394 151.962 86.984 151.296 86.582C150.808 86.287 150.333 85.98 149.988 85.51C149.601 84.983 149.466 84.408 149.751 83.808C150.061 83.155 150.617 82.776 151.338 82.762C152.881 82.733 154.425 82.759 155.968 82.748C156.281 82.745 156.336 82.894 156.335 83.158C156.33 84.404 156.329 85.65 156.332 86.896C156.335 88.338 157.054 89.049 158.505 89.05C159.233 89.05 159.962 89.051 160.69 89.05C162.105 89.049 162.819 88.343 162.82 86.941C162.822 85.51 162.818 84.078 162.824 82.647C162.824 82.487 162.747 82.252 162.964 82.196C163.234 82.126 163.529 82.117 163.801 82.216C163.899 82.251 163.891 82.384 163.89 82.482C163.859 84.146 163.97 85.812 163.827 87.475C163.723 88.682 163.079 89.9 161.423 90.015C160.169 90.101 158.901 90.144 157.651 89.992C156.224 89.82 155.427 88.854 155.323 87.412C155.243 86.315 155.28 85.218 155.278 84.121C155.277 83.78 155.169 83.675 154.83 83.681C153.793 83.7 152.755 83.686 151.718 83.689C151.168 83.69 150.737 83.921 150.643 84.252C150.541 84.608 150.74 85.023 151.207 85.327C151.951 85.812 152.732 86.239 153.412 86.82C154.274 87.554 154.799 88.466 154.822 89.603C154.844 90.683 154.402 91.57 153.5 92.193C152.745 92.7188 151.85 93.0065 150.93 93.019C150.152 93.034 149.373 93.022 148.393 93.022ZM148.07 111.925C148.07 111.542 148.066 111.233 148.071 110.925C148.074 110.741 148.022 110.674 147.831 110.755C147.535 110.879 147.228 110.975 146.934 111.104C145.9 111.554 145.718 112.211 145.833 113.234C145.892 113.754 146.217 114.09 146.62 114.152C146.86 114.188 147.105 114.15 147.322 114.042C147.539 113.934 147.717 113.762 147.833 113.549C147.905 113.406 147.962 113.256 148.003 113.102C148.128 112.692 148.043 112.268 148.07 111.925ZM150.551 111.177C150.551 111.954 150.547 112.731 150.553 113.508C150.558 114.186 150.687 114.342 151.333 114.479C151.461 114.506 151.576 114.542 151.584 114.699C151.592 114.834 151.623 114.989 151.476 115.066C150.786 115.428 149.676 115.686 148.921 115.242C148.641 115.079 148.418 114.834 148.283 114.54C148.185 114.328 148.11 114.325 147.958 114.502C147.048 115.556 145.889 115.667 144.648 115.301C143.737 115.031 143.216 114.209 143.164 113.258C143.081 111.758 143.953 111.085 144.924 110.695C145.531 110.45 146.182 110.347 146.809 110.166C146.999 110.112 147.191 110.064 147.374 109.993C148.013 109.745 148.188 109.366 147.98 108.709C147.889 108.432 147.719 108.187 147.491 108.005C147.264 107.823 146.988 107.71 146.697 107.682C145.801 107.605 145.017 107.862 144.354 108.476C144.11 108.701 144.039 108.679 143.947 108.352L143.928 108.28C143.726 107.409 143.724 107.405 144.511 106.955C145.723 106.262 147.005 106.006 148.391 106.304C149.711 106.587 150.549 107.576 150.557 108.92C150.561 109.673 150.557 110.425 150.557 111.177H150.551ZM161.89 109.952C162.247 109.952 162.605 109.95 162.963 109.952C163.153 109.954 163.281 109.897 163.249 109.676C163.165 109.093 163.129 108.502 162.931 107.937C162.771 107.483 162.507 107.135 162.001 107.112C161.514 107.091 161.208 107.402 161.001 107.812C160.706 108.396 160.643 109.036 160.566 109.671C160.541 109.882 160.658 109.955 160.854 109.953C161.199 109.949 161.544 109.952 161.89 109.952ZM163.14 110.93C162.4 110.93 161.66 110.929 160.919 110.932C160.762 110.932 160.556 110.907 160.569 111.147C160.619 112.124 160.775 113.072 161.567 113.761C162.229 114.338 163.009 114.327 163.807 114.128C164.204 114.028 164.567 113.845 164.904 113.608C165.022 113.524 165.139 113.405 165.301 113.518C165.493 113.652 165.345 113.8 165.317 113.947C165.132 114.91 164.366 115.182 163.569 115.35C162.601 115.564 161.594 115.536 160.639 115.268C159.105 114.833 158.214 113.767 157.906 112.257C157.612 110.819 157.639 109.372 158.434 108.064C159.352 106.552 160.791 106.09 162.467 106.2C163.771 106.286 164.769 106.876 165.357 108.076C165.737 108.85 165.764 109.692 165.8 110.529C165.813 110.817 165.662 110.939 165.362 110.934C164.622 110.92 163.882 110.929 163.141 110.93M107.635 111.222C107.603 111.994 107.738 112.763 108.032 113.477C108.663 114.985 110.986 115.305 111.899 113.866C112.969 112.179 113.136 110.372 112.325 108.536C111.914 107.604 111.148 107.145 110.09 107.232C109.04 107.318 108.407 107.928 108.023 108.845C107.71 109.595 107.616 110.391 107.635 111.222ZM107.725 108.032C108.037 107.649 108.307 107.313 108.643 107.039C110.065 105.882 112.761 106.096 113.883 108.085C114.914 109.913 114.721 112.877 112.966 114.471C111.55 115.755 109.244 115.77 107.889 114.426C107.725 114.264 107.619 114.221 107.44 114.398C107.221 114.614 106.976 114.804 106.74 115.003C106.591 115.129 106.443 115.308 106.225 115.198C106.03 115.099 106.115 114.887 106.121 114.727C106.231 112.077 106.283 109.427 106.253 106.777C106.234 105.15 106.171 103.524 106.111 101.898C106.098 101.561 106.181 101.443 106.539 101.485C106.891 101.526 107.255 101.51 107.61 101.476C107.86 101.452 107.893 101.516 107.877 101.753C107.742 103.783 107.712 105.817 107.7 107.851C107.7 107.887 107.71 107.924 107.725 108.032ZM87.6503 90.052C86.6993 90.052 85.7482 90.045 84.7972 90.056C84.4802 90.06 84.4103 89.956 84.5093 89.659C84.6973 89.099 84.8693 88.532 85.0283 87.962C85.0973 87.715 85.2312 87.638 85.4792 87.636C86.3152 87.628 86.3213 87.62 86.3193 86.764C86.3163 85.984 86.4543 85.24 86.8623 84.567C87.5053 83.507 88.5093 83.185 89.6823 83.233C89.8773 83.241 90.0742 83.269 90.2682 83.305C91.5002 83.536 92.1613 84.337 92.4313 85.507C92.6433 86.429 92.6343 86.431 91.6913 86.431C91.2973 86.431 90.9012 86.423 90.5062 86.433C90.3042 86.438 90.2043 86.365 90.1363 86.167C89.9863 85.738 89.7303 85.576 89.3323 85.614C88.9463 85.651 88.7973 85.914 88.7163 86.252C88.6223 86.642 88.6782 87.037 88.6693 87.43C88.6652 87.59 88.7693 87.643 88.9133 87.638C89.5653 87.618 90.2203 87.695 90.8713 87.581C91.0763 87.545 91.2653 87.476 91.3753 87.304C91.5193 87.08 91.6353 87.11 91.8053 87.274C92.1593 87.618 92.5183 87.959 92.8963 88.274C93.1353 88.474 93.1213 88.646 92.9523 88.87C92.3093 89.724 91.4023 90.018 90.3903 90.047C89.4773 90.073 88.5633 90.052 87.6503 90.052Z" fill="#F5F5F5"/>
<path fill-rule="evenodd" clip-rule="evenodd" d="M168.422 115.464C167.657 115.513 166.912 115.282 166.196 114.917C165.972 114.803 165.899 114.655 165.948 114.411C166.024 114.037 166.078 113.658 166.14 113.281C166.167 113.121 166.119 112.926 166.383 112.902C166.623 112.881 166.743 112.992 166.836 113.193C167.123 113.819 167.606 114.213 168.284 114.343C168.712 114.425 169.144 114.445 169.548 114.224C170.194 113.871 170.256 113.163 169.678 112.711C169.283 112.403 168.816 112.234 168.358 112.048C167.797 111.818 167.253 111.564 166.783 111.166C165.38 109.976 165.643 107.273 167.655 106.484C169.005 105.954 170.287 106.114 171.505 106.894C171.713 107.027 171.755 107.164 171.659 107.384C171.524 107.715 171.432 108.062 171.385 108.417C171.358 108.597 171.327 108.761 171.095 108.777C170.875 108.792 170.739 108.733 170.643 108.502C170.246 107.553 169.663 107.173 168.777 107.242C168.152 107.29 167.716 107.752 167.747 108.32C167.763 108.61 167.927 108.796 168.141 108.955C168.595 109.29 169.122 109.469 169.646 109.656C170.196 109.852 170.729 110.083 171.17 110.473C171.66 110.907 171.93 111.443 171.985 112.115C172.185 114.507 170.307 115.542 168.422 115.464ZM154.63 108.261C154.943 107.769 155.203 107.28 155.618 106.894C156.068 106.46 156.672 106.223 157.297 106.234C157.535 106.235 157.647 106.284 157.617 106.576C157.544 107.261 157.477 107.95 157.547 108.642C157.577 108.942 157.441 109.024 157.137 108.915C156.312 108.62 155.617 108.775 155.117 109.368C154.833 109.704 154.715 110.103 154.712 110.533C154.7 111.951 154.688 113.369 154.838 114.783C154.882 115.193 154.835 115.233 154.432 115.233C153.765 115.23 153.098 115.223 152.432 115.238C152.159 115.245 152.033 115.203 152.057 114.878C152.205 112.833 152.143 110.783 152.137 108.735C152.137 108.058 152.097 107.38 152.052 106.704C152.037 106.466 152.084 106.405 152.332 106.433C152.983 106.501 153.64 106.503 154.292 106.439C154.576 106.413 154.638 106.504 154.633 106.754C154.623 107.256 154.63 107.759 154.63 108.261ZM103.19 113.886C102.842 114.386 102.466 114.781 101.961 115.038C100.857 115.601 99.7429 115.587 98.6539 115.042C97.6579 114.543 97.3139 113.625 97.3049 112.581C97.2949 111.261 97.3489 109.942 97.3599 108.623C97.3639 108.069 97.3299 107.515 97.3059 106.961C97.2939 106.661 97.3539 106.487 97.7259 106.579C97.9989 106.646 98.2959 106.641 98.5719 106.573C98.8519 106.505 98.9149 106.595 98.9009 106.864C98.8249 108.341 98.7229 109.817 98.7389 111.298C98.7449 111.865 98.7259 112.432 98.8839 112.987C99.1279 113.84 99.7999 114.392 100.678 114.452C101.603 114.515 102.472 114.01 102.812 113.215C103.043 112.674 103.142 112.105 103.144 111.521C103.151 110.015 103.146 108.51 103.148 107.004C103.148 106.541 103.15 106.551 103.624 106.591C103.868 106.611 104.124 106.621 104.361 106.571C104.685 106.503 104.757 106.631 104.741 106.915C104.69 107.788 104.623 108.661 104.608 109.535C104.586 110.83 104.597 112.127 104.606 113.422C104.609 113.902 104.639 114.382 104.673 114.862C104.694 115.16 104.569 115.259 104.284 115.24C104.025 115.223 103.765 115.223 103.506 115.24C103.215 115.26 103.133 115.118 103.166 114.86C103.204 114.558 103.252 114.257 103.19 113.886ZM137.43 84.3691C137.43 86.1071 137.424 87.8451 137.437 89.5841C137.439 89.9281 137.342 90.0751 136.977 90.0591C136.447 90.0367 135.917 90.0364 135.387 90.0581C135.061 90.0691 134.954 89.9431 134.957 89.6261C134.967 88.1841 134.961 86.7421 134.961 85.2991C134.961 83.2531 134.968 81.2061 134.955 79.1591C134.953 78.7971 135.053 78.6491 135.437 78.6711C135.953 78.7011 136.473 78.6961 136.99 78.6721C137.332 78.6571 137.439 78.7811 137.437 79.1171C137.424 80.8671 137.431 82.6181 137.431 84.3691M120.2 111.923C120.2 111.639 120.196 111.355 120.2 111.072C120.204 110.857 120.126 110.79 119.906 110.844C119.559 110.929 119.204 110.981 118.854 111.052C118.297 111.165 117.736 111.27 117.255 111.602C116.297 112.264 116.292 113.756 117.243 114.373C118.267 115.039 119.99 114.237 120.153 113.031C120.203 112.661 120.176 112.291 120.2 111.923ZM121.716 109.956C121.682 111.164 121.62 112.371 121.646 113.58C121.663 114.357 121.793 114.509 122.56 114.573C122.67 114.583 122.718 114.626 122.73 114.723C122.748 114.85 122.732 114.966 122.616 115.053C122 115.515 120.651 115.234 120.329 114.547C120.201 114.274 120.112 114.328 119.942 114.479C119.324 115.025 118.62 115.367 117.782 115.431C116.347 115.541 115.219 114.908 114.968 113.527C114.795 112.57 115.244 111.635 116.096 111.145C116.778 110.754 117.546 110.682 118.293 110.531C118.728 110.444 119.168 110.381 119.592 110.243C120.112 110.073 120.208 109.939 120.207 109.383C120.206 109.074 120.185 108.768 120.083 108.473C119.733 107.457 118.826 107.008 117.656 107.279C117.037 107.423 116.496 107.696 116.135 108.248C116.073 108.342 116.003 108.439 115.869 108.405C115.72 108.366 115.765 108.231 115.747 108.129C115.647 107.585 115.861 107.244 116.354 106.975C117.419 106.394 118.527 106.185 119.706 106.468C120.903 106.756 121.688 107.763 121.716 108.994C121.723 109.314 121.716 109.635 121.716 109.956ZM171.979 87.0351C171.979 87.9111 171.971 88.7871 171.983 89.6631C171.987 89.9471 171.892 90.0571 171.6 90.0561C169.86 90.0481 168.119 90.0431 166.378 90.0581C165.968 90.0621 165.996 89.8211 165.998 89.5521C166.001 89.2881 165.958 89.0381 166.374 89.0441C167.744 89.0621 169.114 89.0421 170.485 89.0561C170.803 89.0601 170.92 88.9691 170.916 88.6391C170.9 87.3691 170.918 86.0971 170.906 84.8271C170.896 83.6821 170.364 83.1661 169.215 83.1551C168.882 83.1521 168.547 83.1511 168.227 83.2651C167.808 83.4131 167.475 83.6651 167.374 84.1131C167.301 84.4381 167.126 84.5351 166.824 84.4991C166.738 84.4891 166.652 84.4891 166.566 84.4991C166.211 84.5391 166.176 84.3611 166.251 84.0741C166.48 83.2031 167.023 82.6171 167.871 82.3461C168.7 82.0767 169.592 82.0725 170.423 82.3341C171.363 82.6241 171.959 83.4191 171.975 84.4081C171.989 85.2831 171.978 86.1591 171.978 87.0351H171.979ZM124.883 115.226C124.001 115.228 124.015 115.23 124.104 114.316C124.147 113.876 124.128 113.429 124.128 112.986C124.128 111.333 124.13 109.681 124.121 108.028C124.118 107.635 124.078 107.242 124.051 106.849C124.035 106.604 124.137 106.505 124.382 106.56C124.687 106.63 124.996 106.62 125.302 106.581C125.707 106.529 125.768 106.561 125.712 106.978C125.612 107.713 125.612 108.454 125.594 109.189C125.549 110.889 125.558 112.591 125.653 114.29C125.655 114.327 125.654 114.364 125.658 114.4C125.733 115.225 125.733 115.225 124.883 115.226ZM124.896 104.355C124.336 104.356 123.901 103.929 123.91 103.388C123.918 102.878 124.376 102.418 124.88 102.411C125.397 102.404 125.867 102.88 125.865 103.408C125.864 103.534 125.838 103.659 125.789 103.774C125.74 103.89 125.668 103.995 125.578 104.083C125.488 104.172 125.381 104.241 125.264 104.287C125.147 104.334 125.022 104.357 124.896 104.355ZM148.106 95.3661V95.7761C148.109 95.9591 148.02 96.0491 147.836 96.0481L147.763 96.0511C146.928 96.0961 146.682 95.7811 146.908 94.9611C146.928 94.8881 146.95 94.8051 147.029 94.7911C147.346 94.7381 147.683 94.6921 147.978 94.8051C148.233 94.9031 148.06 95.2041 148.106 95.3661ZM150.484 95.3951C150.484 96.0541 150.484 96.0541 149.859 96.0521C149.324 96.0501 149.319 96.0501 149.324 95.4901C149.33 94.7151 149.212 94.7701 150.059 94.7541C150.373 94.7481 150.527 94.8441 150.485 95.1741C150.475 95.2461 150.484 95.3221 150.484 95.3951ZM162.862 92.4601C162.828 92.6161 162.959 92.8911 162.762 92.9721C162.471 93.0921 162.135 93.0391 161.819 92.9931C161.733 92.9811 161.715 92.8971 161.71 92.8221C161.704 92.7121 161.7 92.6021 161.702 92.4921C161.71 91.7141 161.612 91.8121 162.416 91.7821C162.779 91.7681 162.91 91.9021 162.863 92.2471C162.855 92.3071 162.863 92.3691 162.863 92.4601" fill="#F5F5F5"/>
</svg>
