<svg width="194" height="194" viewBox="0 0 194 194" fill="none" xmlns="http://www.w3.org/2000/svg">
<path fill-rule="evenodd" clip-rule="evenodd" d="M127.832 93.68C129.021 93.68 130.165 93.682 131.31 93.679C131.39 93.679 131.473 93.65 131.552 93.629C133.015 93.247 133.876 91.953 133.702 90.404C133.549 89.044 132.372 88.017 130.892 87.984C129.94 87.962 128.986 87.979 128.033 87.981C127.969 87.981 127.905 88.002 127.833 88.015V93.681L127.832 93.68ZM127.834 105.11C129.397 105.11 130.92 105.161 132.436 105.084C133.044 105.053 133.683 104.82 134.229 104.531C135.569 103.821 136.266 102.103 135.919 100.586C135.576 99.08 134.234 97.834 132.729 97.761C131.142 97.683 129.551 97.713 127.961 97.699C127.925 97.699 127.888 97.729 127.834 97.752V105.109V105.11ZM125.391 109.098C125.361 109.073 125.336 109.036 125.302 109.023C124.259 108.619 123.828 108.001 123.826 106.885C123.823 105.091 123.826 103.298 123.826 101.505V86.233C123.826 85.058 124.388 84.279 125.399 84.056C125.599 84.012 125.811 84.005 126.017 84.004C127.593 84 129.169 83.998 130.745 84.003C134.634 84.013 137.556 86.786 137.727 90.663C137.788 92.063 137.394 93.361 136.622 94.538L136.393 94.891C136.723 95.152 137.049 95.385 137.346 95.649C138.83 96.966 139.714 98.602 139.943 100.58C139.949 100.633 139.98 100.682 140 100.733V102.223C139.973 102.299 139.934 102.371 139.92 102.448C139.406 105.509 137.694 107.593 134.781 108.674C134.246 108.873 133.669 108.96 133.111 109.098H125.391ZM112.912 99.228L110.006 91.533L107.102 99.228H112.912ZM101.652 109.098C100.175 108.523 99.7409 107.541 100.302 106.046C102.86 99.238 105.42 92.431 107.972 85.621C108.267 84.833 108.727 84.238 109.596 84.08C110.74 83.872 111.578 84.4 112.022 85.58L118.418 102.6L119.681 105.966C120.266 107.523 119.904 108.422 118.418 109.098H117.588C116.699 108.832 116.242 108.193 115.95 107.345C115.508 106.056 114.99 104.793 114.522 103.514C114.431 103.266 114.309 103.183 114.045 103.184C111.365 103.194 108.683 103.194 106.002 103.184C105.74 103.184 105.62 103.265 105.528 103.516C105.06 104.796 104.538 106.057 104.098 107.346C103.798 108.22 103.3 108.838 102.398 109.098H101.652ZM83.4729 109.098C83.2559 108.989 83.0249 108.899 82.8229 108.767C82.1289 108.311 81.9199 107.627 81.9219 106.837C81.9279 103.884 81.9239 100.931 81.9239 97.979C81.9239 94.074 81.9269 90.169 81.9219 86.265C81.9209 85.407 82.1669 84.685 82.9649 84.251C83.2535 84.0928 83.5769 84.009 83.906 84.0069C84.235 84.0049 84.5594 84.0847 84.85 84.2393C85.1405 84.3938 85.388 84.6182 85.5703 84.8922C85.7525 85.1662 85.8637 85.4813 85.8939 85.809C85.9129 86.015 85.9159 86.223 85.9159 86.429L85.9169 104.559V105.119H86.4589C89.4879 105.119 92.5159 105.115 95.5439 105.123C96.8529 105.126 97.7789 106.17 97.5899 107.423C97.4799 108.149 97.0469 108.641 96.3839 108.94C96.2599 108.996 96.1329 109.046 96.0069 109.098H83.4729Z" fill="#F5F5F5"/>
<mask id="mask0_2936_18787" style="mask-type:luminance" maskUnits="userSpaceOnUse" x="55" y="84" width="85" height="26">
<path d="M55 109.098H140V84H55V109.098Z" fill="white"/>
</mask>
<g mask="url(#mask0_2936_18787)">
<path fill-rule="evenodd" clip-rule="evenodd" d="M55.0024 109.098H76.6674V105.147H55.0024V109.098ZM65.8244 94.7109L71.3394 87.0829C71.8644 86.3559 72.3844 85.6249 72.9164 84.9029C73.4064 84.2379 74.0594 83.8989 74.8924 84.0409C75.7034 84.1789 76.2794 84.6419 76.5344 85.4379C76.6094 85.6699 76.6304 85.9269 76.6314 86.1719C76.6364 90.9879 76.6374 95.8039 76.6324 100.621C76.6324 101.693 76.0854 102.451 75.1594 102.72C74.8838 102.802 74.5936 102.821 74.3096 102.777C74.0257 102.733 73.7549 102.627 73.517 102.466C73.2791 102.304 73.0798 102.093 72.9336 101.845C72.7874 101.598 72.6978 101.321 72.6714 101.035C72.6534 100.829 72.6453 100.622 72.6474 100.415C72.6454 97.8209 72.6464 95.2259 72.6464 92.6319V92.0659C72.4764 92.2829 72.3844 92.3939 72.2994 92.5109C70.7324 94.6809 69.1684 96.8549 67.5984 99.0249C66.8314 100.085 65.5754 100.345 64.5954 99.6349C64.3554 99.4493 64.1456 99.2277 63.9734 98.9779C62.4464 96.8629 60.9304 94.7399 59.4104 92.6199C59.2972 92.4458 59.1548 92.2925 58.9894 92.1669V92.5909C58.9894 95.3239 58.9924 98.0559 58.9864 100.788C58.9854 101.572 58.6324 102.17 57.9444 102.548C57.2714 102.916 56.5874 102.9 55.9374 102.488C55.2874 102.077 55.0024 101.463 55.0034 100.703C55.0054 98.8539 55.0034 97.0049 55.0034 95.1559C55.0034 92.1339 54.9964 89.1119 55.0064 86.0889C55.0104 84.5539 56.4184 83.5769 57.8074 84.1819C58.2094 84.3579 58.5744 84.7249 58.8404 85.0889C61.0904 88.1629 63.3134 91.2569 65.5454 94.3449C65.6254 94.4549 65.7104 94.5619 65.8244 94.7109Z" fill="#F5F5F5"/>
</g>
</svg>
