<svg width="194" height="194" viewBox="0 0 194 194" fill="none" xmlns="http://www.w3.org/2000/svg">
<path fill-rule="evenodd" clip-rule="evenodd" d="M71.2605 116.968V118.594C71.2605 120.584 70.7885 121.864 69.7855 122.899C68.5455 124.179 66.1285 125.174 61.2305 125.174C55.6445 125.174 53.4025 123.976 52.1045 122.636C50.9845 121.478 50.3145 119.832 50.3145 117.74C50.3145 115.79 50.9045 114.064 52.1045 112.825C53.4025 111.485 55.9985 110.306 61.2305 110.306C65.4005 110.306 68.6255 111.058 70.2965 111.931V114.816C68.3105 113.699 65.0265 112.845 61.2305 112.845C57.4145 112.845 55.3885 113.556 54.4835 114.489C53.7565 115.241 53.3835 116.279 53.3835 117.739C53.3835 119.285 53.7955 120.299 54.4835 121.009C55.3885 121.945 57.0605 122.716 61.2305 122.716C64.5345 122.716 66.6205 122.108 67.4055 121.295C67.9365 120.746 68.1335 120.198 68.1335 119.487H59.6765V116.968H71.2605ZM88.7105 121.823C88.9855 121.538 89.0835 121.193 89.0835 120.828C89.0835 120.402 88.9855 120.076 88.7495 119.832C88.3165 119.386 87.5105 119.202 82.6535 118.939C77.1645 118.654 75.4935 118.187 74.5495 117.213C73.9995 116.643 73.7635 115.851 73.7635 114.836C73.7635 113.8 73.9805 112.825 74.7265 112.053C75.6905 111.058 77.5795 110.367 82.4165 110.367C86.2515 110.367 89.1435 110.936 90.9725 111.687V114.347C88.8875 113.434 85.4265 112.764 82.4175 112.764C78.6605 112.764 77.5795 113.13 77.1255 113.596C76.8905 113.84 76.7915 114.166 76.7915 114.551C76.7915 114.917 76.8905 115.221 77.0885 115.425C77.5005 115.851 78.4255 116.095 82.9085 116.318C88.7115 116.623 90.3235 117.07 91.2665 118.045C91.8175 118.613 92.1125 119.487 92.1125 120.502C92.1125 121.559 91.8965 122.534 91.1485 123.306C90.1655 124.321 88.2195 125.114 83.0665 125.114C79.2505 125.114 75.5135 124.483 73.3895 123.529V120.869C75.4355 121.884 79.7815 122.716 83.0665 122.716C86.9205 122.716 88.1585 122.392 88.7105 121.823ZM118.729 124.849H115.925V112.947L108.578 124.849H104.779L97.4325 112.947V124.849H94.6455V110.631H99.2235L106.733 122.899L114.26 110.631H118.729V124.849ZM127.485 118.98H135.937L131.702 112.337L127.485 118.98ZM133.782 110.55L143.071 124.849H139.675L137.539 121.499H125.884L123.747 124.849H120.485L129.775 110.55H133.782ZM139.815 111.06H138.884V110.54H141.267V111.06H140.335V113.734H139.815V111.06ZM141.812 110.54H142.361L143.255 112.05L144.149 110.54H144.699V113.734H144.183V111.444L143.255 112.949H143.238L142.32 111.452V113.734H141.812V110.54ZM50.7545 103.348H60.6565V91.6609H50.7545V103.348ZM64.3815 103.348H79.2315V85.8209H64.3815V103.348ZM82.9555 103.348H105.209V77.0599H82.9555V103.348ZM109.384 103.348H142.323V63.9209H109.384V103.348Z" fill="#F5F5F5"/>
</svg>
