<svg width="194" height="194" viewBox="0 0 194 194" fill="none" xmlns="http://www.w3.org/2000/svg">
<path d="M120.153 109.547V111.572C120.153 112.219 119.937 112.746 119.505 113.164C118.965 113.691 118.263 113.894 117.399 113.772C116.643 113.651 115.779 113.111 115.172 112.112V90.282C115.874 89.337 116.616 88.81 117.399 88.689C118.263 88.568 118.965 88.77 119.505 89.296C119.937 89.701 120.153 90.242 120.153 90.89V109.547ZM123.028 84.423C122.138 83.816 121.03 83.505 119.708 83.505C117.818 83.505 116.306 84.207 115.172 85.625V75H109.88V105.227C109.839 106.104 109.488 106.887 108.53 107.157C107.146 107.369 105.884 108.07 104.973 109.133C104.062 110.195 103.561 111.549 103.562 112.949C103.561 113.72 103.713 114.484 104.007 115.197C104.302 115.909 104.735 116.557 105.28 117.102C105.826 117.648 106.473 118.08 107.186 118.375C107.898 118.67 108.662 118.822 109.434 118.821C110.829 118.823 112.18 118.325 113.241 117.417C113.264 117.406 113.284 117.387 113.295 117.363C113.443 117.242 113.578 117.093 113.714 116.958C113.916 116.796 114.145 116.661 114.429 116.661C114.78 116.661 115.036 116.715 115.333 116.985C116.481 118.267 117.939 118.929 119.721 118.929C119.789 118.929 119.856 118.929 119.937 118.915C121.192 118.889 122.259 118.592 123.109 118.011C124.001 117.403 124.608 116.715 124.959 115.972C125.283 115.257 125.459 114.056 125.472 112.355C125.472 112.274 125.486 112.193 125.486 112.112V90.322C125.486 88.5 125.296 87.204 124.932 86.462C124.54 85.706 123.919 85.031 123.028 84.423ZM133.423 85.584V83.721H128.186V118.632H133.423V90.215C134.193 89.283 134.976 88.757 135.773 88.621C136.65 88.5 137.406 88.703 138 89.229V83.384C136.11 83.397 134.584 84.113 133.423 85.584Z" fill="#F5F5F5"/>
<path d="M112.431 112.949C112.431 114.609 111.081 115.959 109.421 115.959C108.623 115.958 107.858 115.641 107.293 115.077C106.728 114.513 106.411 113.747 106.41 112.949C106.411 112.151 106.728 111.385 107.292 110.821C107.857 110.256 108.622 109.939 109.42 109.938C109.816 109.937 110.208 110.015 110.573 110.165C110.939 110.316 111.271 110.538 111.551 110.818C111.83 111.097 112.052 111.43 112.203 111.795C112.354 112.161 112.432 112.553 112.431 112.949Z" fill="white"/>
<path d="M72.43 118.605H67.206V91.0252C67.206 90.3772 66.99 89.8502 66.558 89.4452C66.018 88.9182 65.316 88.7162 64.452 88.8382C63.669 88.9592 62.926 89.4862 62.224 90.4172V118.605H57V83.9512H62.224V85.8132C63.386 84.4092 64.884 83.7072 66.734 83.7072C68.056 83.7072 69.15 84.0042 70.041 84.6122C70.918 85.2192 71.539 85.8952 71.904 86.6372C72.268 87.3792 72.444 88.6622 72.444 90.4852V118.605H72.43ZM81.435 83.9372H76.211V118.605H81.435V83.9372ZM81.435 75.2842H76.211V80.3872H81.435V75.2842ZM100.078 109.222H94.854V111.22C94.854 111.936 94.611 112.544 94.098 113.07C93.598 113.583 93.005 113.853 92.33 113.853C91.9905 113.859 91.6533 113.796 91.3396 113.665C91.0259 113.535 90.7425 113.342 90.507 113.097C90.007 112.584 89.751 111.99 89.751 111.301V91.2542C89.751 90.5652 89.994 89.9582 90.507 89.4582C90.7434 89.2147 91.027 89.0222 91.3405 88.8923C91.654 88.7625 91.9907 88.6981 92.33 88.7032C93.018 88.7032 93.599 88.9592 94.098 89.4592C94.598 89.9722 94.854 90.5662 94.854 91.2542V103.755H100.078V91.4702C100.078 89.3242 99.309 87.5012 97.797 85.9892C96.285 84.4772 94.449 83.7212 92.303 83.7212C90.156 83.7212 88.32 84.4772 86.808 85.9892C85.296 87.5012 84.526 89.3232 84.526 91.4562V111.112C84.526 113.245 85.296 115.082 86.862 116.58C88.415 118.092 90.251 118.848 92.397 118.848C94.53 118.848 96.353 118.078 97.837 116.566C99.336 115.054 100.078 113.205 100.078 111.058V109.222Z" fill="#F5F5F5"/>
</svg>
