<svg width="194" height="194" viewBox="0 0 194 194" fill="none" xmlns="http://www.w3.org/2000/svg">
<mask id="mask0_2936_18770" style="mask-type:luminance" maskUnits="userSpaceOnUse" x="78" y="60" width="36" height="19">
<path d="M78.8613 60.0298H113.562V78.5918H78.8613V60.0298Z" fill="white"/>
</mask>
<g mask="url(#mask0_2936_18770)">
<path fill-rule="evenodd" clip-rule="evenodd" d="M85.057 78.3087C83.9096 78.7294 82.6419 78.6771 81.533 78.1633C80.4241 77.6494 79.5648 76.7161 79.144 75.5687C78.7232 74.4212 78.7755 73.1536 79.2894 72.0447C79.8032 70.9358 80.7366 70.0764 81.884 69.6557L107.367 60.3127C108.508 59.918 109.759 59.987 110.85 60.5049C111.941 61.0227 112.785 61.948 113.201 63.0818C113.616 64.2156 113.57 65.4672 113.073 66.5675C112.575 67.6679 111.666 68.529 110.54 68.9657L85.057 78.3087Z" fill="#F5F5F5"/>
</g>
<path fill-rule="evenodd" clip-rule="evenodd" d="M85.0583 92.1009C83.9182 92.4904 82.6709 92.4181 81.5835 91.8994C80.496 91.3808 79.6548 90.457 79.2399 89.3259C78.8251 88.1947 78.8695 86.9461 79.3638 85.8473C79.858 84.7486 80.7628 83.8869 81.8843 83.4469L107.366 74.1049C108.514 73.6842 109.782 73.7365 110.891 74.2504C112 74.7644 112.859 75.6978 113.28 76.8454C113.701 77.993 113.648 79.2607 113.134 80.3697C112.62 81.4787 111.687 82.3382 110.539 82.7589L85.0573 92.0999" fill="#F5F5F5"/>
<mask id="mask1_2936_18770" style="mask-type:luminance" maskUnits="userSpaceOnUse" x="57" y="87" width="79" height="42">
<path d="M57.0352 87.6138H135.423V128.776H57.0352V87.6138Z" fill="white"/>
</mask>
<g mask="url(#mask1_2936_18770)">
<path fill-rule="evenodd" clip-rule="evenodd" d="M85.058 105.894C83.916 106.29 82.6639 106.222 81.5714 105.705C80.4789 105.187 79.6335 104.261 79.2172 103.126C78.801 101.991 78.8473 100.738 79.3461 99.6367C79.8449 98.5354 80.7563 97.6742 81.884 97.2385L107.366 87.8955C108.507 87.5019 109.757 87.5716 110.848 88.0898C111.938 88.608 112.782 89.5332 113.198 90.6668C113.613 91.8003 113.567 93.0516 113.07 94.1518C112.573 95.252 111.664 96.1133 110.539 96.5505L85.058 105.894ZM57 117.354H65.548V119.677H60.018V121.696H65.321V124.106H60.018V126.192H65.637V128.532H57V117.354ZM78.83 128.538H81.871V117.354H78.83V128.538ZM92.965 117.713L92.761 120.107C90.305 118.685 86.539 119.138 86.472 122.867C86.403 126.592 90.35 127.137 92.852 125.871L93.01 128.314C88.591 129.691 83.313 128.29 83.336 122.867C83.359 117.553 88.679 116.084 92.965 117.713ZM101.918 117.54L101.713 119.87C100.18 119.025 97.271 119.003 97.271 120.328C97.271 122.291 102.458 120.873 102.458 125.077C102.458 129.211 97.521 129.257 94.318 128.297L94.544 125.832C96.551 126.768 99.393 126.972 99.393 125.351C99.393 123.571 94.183 124.573 94.183 120.578C94.183 117.3 98.242 116.421 101.918 117.54ZM111.094 117.54L110.891 119.87C109.358 119.025 106.449 119.003 106.449 120.328C106.449 122.291 111.636 120.873 111.636 125.077C111.636 129.211 106.696 129.257 103.495 128.297L103.722 125.832C105.728 126.768 108.569 126.972 108.569 125.351C108.569 123.571 103.36 124.573 103.36 120.578C103.36 117.3 107.418 116.421 111.094 117.54ZM125.097 117.354H128.95L132.627 124.568V117.354H135.423V128.538H131.793L127.916 121.188V128.538H125.097V117.354ZM115.65 122.97C115.65 124.674 116.38 126.603 118.084 126.601C119.789 126.599 120.507 124.674 120.518 122.97C120.531 121.428 119.788 119.343 118.084 119.34C116.379 119.34 115.649 121.266 115.649 122.97H115.65ZM118.085 117.085C121.244 117.087 123.655 118.935 123.655 122.97C123.655 126.826 121.232 128.81 118.085 128.81C114.944 128.812 112.535 126.872 112.535 122.97C112.535 118.935 114.93 117.085 118.085 117.085Z" fill="#F5F5F5"/>
</g>
<path fill-rule="evenodd" clip-rule="evenodd" d="M67.7559 117.354H73.2359C74.7249 117.354 76.7979 118.007 76.7979 120.331C76.7979 121.817 76.1239 122.651 74.8419 123.036C74.9019 123.031 75.5739 123.324 75.8519 124.164C75.8619 124.192 77.4189 128.528 77.4369 128.538H74.2059L73.0559 125.177C72.8789 124.661 72.4959 124.32 71.9509 124.32C71.4769 124.32 70.7329 124.288 70.7329 124.32V128.538H67.7559V117.354ZM70.6649 122.067H72.3329C73.0839 122.078 73.7609 121.627 73.7529 120.802C73.7489 120.072 73.1499 119.553 72.3779 119.564H70.6649V122.067Z" fill="#F5F5F5"/>
</svg>
