<svg width="194" height="194" viewBox="0 0 194 194" fill="none" xmlns="http://www.w3.org/2000/svg">
<mask id="mask0_2936_18804" style="mask-type:luminance" maskUnits="userSpaceOnUse" x="35" y="85" width="44" height="19">
<path d="M35 85.752H78.13V103.987H35V85.752Z" fill="white"/>
</mask>
<g mask="url(#mask0_2936_18804)">
<path fill-rule="evenodd" clip-rule="evenodd" d="M35 91.837H59.353V85.752H35V91.837ZM35 103.987H59.353V97.921H35V103.987ZM76.473 90.11C75.961 87.56 75.426 86.693 72.551 86.693C71.332 86.693 70.333 87.039 69.653 87.633C69.067 88.127 68.798 88.748 68.798 89.514C68.798 90.209 69.166 91.054 69.629 91.498C70.261 92.118 71.186 92.662 72.721 93.454C74.622 94.444 76.059 95.016 77.106 96.227C77.618 96.824 78.13 97.937 78.13 99.152C78.13 100.44 77.69 101.603 76.764 102.445C75.742 103.385 74.134 104.006 71.966 104.006C70.553 104.006 68.824 103.684 67.412 103.164C67.2379 101.923 66.9688 100.698 66.607 99.499L67.46 99.275C68.24 102.321 69.603 103.065 72.185 103.065C73.305 103.065 74.352 102.744 75.109 102.148C75.5033 101.845 75.8212 101.455 76.0372 101.007C76.2533 100.56 76.3614 100.068 76.353 99.571C76.353 98.581 76.083 97.986 75.572 97.367C74.792 96.427 73.476 95.832 72.063 95.114C70.578 94.346 68.533 93.23 67.826 92.215C67.3486 91.5143 67.0939 90.6858 67.095 89.838C67.095 88.774 67.532 87.708 68.558 86.915C69.434 86.22 70.772 85.752 72.673 85.752C74.232 85.752 75.497 85.95 76.742 86.445C76.886 87.459 77.106 88.798 77.327 89.913L76.473 90.11Z" fill="#F5F5F5"/>
</g>
<path fill-rule="evenodd" clip-rule="evenodd" d="M80.4326 97.8138C80.4326 100.034 81.0116 101.499 81.9516 102.4C82.9206 103.256 84.0786 103.621 85.5266 103.621C87.0466 103.621 88.2306 103.23 89.1966 102.353C90.1156 101.449 90.6706 100.009 90.6706 97.8138C90.6706 95.8868 90.1406 94.3977 89.1976 93.4458C88.2556 92.5428 87.1436 92.1028 85.5266 92.1028C83.9806 92.1028 82.8706 92.5428 81.9286 93.4228C80.9626 94.3728 80.4326 95.8868 80.4326 97.8138ZM82.1726 97.8387C82.1726 95.9587 82.5086 94.7397 83.1606 93.8848C83.7386 93.2038 84.5386 92.8618 85.5026 92.8618C86.5176 92.8618 87.3366 93.2038 87.8936 93.8848C88.5456 94.7397 88.8836 95.9587 88.8836 97.8387C88.8836 99.8138 88.4716 101.059 87.8686 101.839C87.3136 102.476 86.5406 102.865 85.5266 102.865C84.5126 102.865 83.7386 102.475 83.1856 101.84C82.5816 101.059 82.1716 99.8138 82.1716 97.8398M93.8546 93.1997H91.9766V92.4037H93.8546V90.8317C93.8546 89.3108 94.2346 88.1617 95.0726 87.3137C95.6806 86.7417 96.5426 86.3438 97.6606 86.3438C98.7006 86.3438 99.3096 86.6168 99.8176 86.9408C100.554 87.4147 100.909 88.0388 100.909 88.4858C100.909 88.9858 100.655 89.2608 100.199 89.2608C99.5886 89.2608 99.3616 88.7357 99.0816 88.1877C98.8016 87.6387 98.4716 87.1178 97.6856 87.1178C97.1786 87.1178 96.7726 87.2897 96.4156 87.6657C95.9096 88.2627 95.6056 89.1608 95.6056 90.9328V92.4028H98.8276V93.2008H95.6056V101.353C95.6056 102.851 95.7076 102.999 97.6116 102.999V103.621H91.9496V103C93.7256 103 93.8536 102.826 93.8536 101.304L93.8546 93.1997ZM100.27 92.9278C101.757 92.7778 102.778 92.1748 103.08 89.5438H103.67V92.7038H106.172V93.5048H103.67V101.603C103.67 102.781 104 103.383 104.825 103.383C105.371 103.383 105.818 103.183 106.291 102.807L106.668 103.357C106.055 103.934 105.322 104.261 104.354 104.261C103.151 104.261 102.043 103.659 102.043 101.703V93.5048H100.269L100.27 92.9278ZM111.684 95.0198H114.674C116.649 95.0198 117.976 95.3617 118.821 96.0208C119.238 96.3303 119.576 96.7344 119.806 97.2C120.037 97.6656 120.153 98.1793 120.147 98.6988C120.147 99.9668 119.783 100.87 119.205 101.479C118.385 102.333 117.277 102.699 115.565 102.699H112.575C111.828 102.699 111.684 102.526 111.684 101.503V95.0198ZM109.9 101.066C109.9 102.794 109.752 102.916 107.947 102.916V103.622H115.805C118.312 103.622 119.735 103.039 120.676 102.112C121.639 101.187 122.025 99.9678 122.025 98.7498C122.025 97.4097 121.351 96.4338 120.481 95.7528C119.446 94.9468 118.048 94.5337 116.481 94.4847V94.4348C118 94.2158 119.011 93.7287 119.735 93.0717C120.627 92.2687 120.939 91.1938 120.939 90.2678C120.939 89.0248 120.314 88.0517 119.398 87.4178C118.095 86.5397 116.648 86.3448 114.431 86.3448H107.947V87.0518C109.752 87.0518 109.9 87.1718 109.9 88.9288V101.066ZM111.683 88.1238C111.683 87.4668 111.779 87.2718 112.405 87.2718H114.695C116.385 87.2718 117.467 87.6607 118.143 88.2217C118.674 88.6607 119.083 89.6118 119.083 90.4408C119.083 91.6088 118.674 92.4628 117.975 93.0478C117.105 93.7778 115.756 94.0957 114.094 94.0957H111.683V88.1227V88.1238ZM132.038 95.4958C132.038 94.4228 131.868 93.7627 131.247 93.0557C130.648 92.3737 129.81 92.1028 128.374 92.1028C127.105 92.1028 126.267 92.4218 125.644 92.7878C124.879 93.2517 124.401 93.9097 124.401 94.4948C124.401 94.8628 124.613 95.2028 125.069 95.2028C125.573 95.2028 125.789 94.9598 125.906 94.6178C126.122 94.0798 126.34 93.6648 126.652 93.4228C127.082 93.0788 127.56 92.8618 128.278 92.8618C129.068 92.8618 129.644 93.1048 130 93.5928C130.312 94.0078 130.386 94.7397 130.386 95.2998V96.3498L128.973 96.6918C127.44 97.0338 126.243 97.5208 125.429 98.0837C124.377 98.7898 123.946 99.6688 123.946 100.791C123.946 101.718 124.328 102.427 124.904 102.89C125.525 103.403 126.34 103.621 127.105 103.621C128.685 103.621 129.644 103.061 130.455 102.28H130.527C130.744 103.083 131.247 103.524 132.085 103.524C132.707 103.524 133.137 103.377 133.544 103.182L133.4 102.622C133.206 102.739 132.982 102.797 132.756 102.791C132.277 102.791 132.038 102.302 132.038 101.207V95.4958ZM130.386 101.426C129.786 102.034 128.973 102.694 127.799 102.694C127.081 102.694 126.579 102.451 126.219 102.107C125.86 101.743 125.693 101.207 125.693 100.569C125.693 99.4468 126.363 98.8138 127.296 98.3018C128.181 97.7417 129.356 97.3977 130.386 97.1077V101.426ZM144.528 101.4C144.528 102.797 144.624 102.998 145.702 102.998V103.621H141.652V102.998C142.802 102.998 142.874 102.849 142.874 101.348V95.7778C142.874 94.8038 142.754 94.0037 142.3 93.5037C141.987 93.1797 141.556 93.0037 140.91 93.0037C139.903 93.0037 138.825 93.9538 137.866 95.3278V101.348C137.866 102.849 137.89 102.998 139.016 102.998V103.621H134.824V102.998C136.116 102.998 136.212 102.849 136.212 101.348V95.2778C136.212 93.8278 136.092 93.6548 134.824 93.6778V93.1287C135.877 92.9537 136.692 92.7038 137.482 92.1028L137.722 92.2538L137.817 94.1778H137.866C138.826 92.9038 140.046 92.1028 141.364 92.1028C142.396 92.1028 143.137 92.3807 143.664 92.9037C144.217 93.4538 144.528 94.3538 144.528 95.6768V101.4ZM150.246 97.4868L153.812 94.0238C154.485 93.4008 154.66 93.0258 153.462 93.0258V92.4037H157.153V93.0258C156.43 93.0508 156.03 93.2227 155.458 93.7747L152.839 96.2657L156.654 102.053C157.204 102.925 157.752 103.024 158.5 102.999V103.621H155.656L151.595 97.3387L150.197 98.7118V101.353C150.197 102.799 150.247 102.999 151.619 102.999V103.621H146.982V103C148.425 103 148.475 102.8 148.475 101.354V89.5328C148.475 88.0878 148.327 87.9138 146.982 87.9138V87.3657C148.202 87.1907 149.05 86.9168 149.972 86.3438L150.197 86.4928V97.4868H150.246Z" fill="#F5F5F5"/>
</svg>
