<svg width="194" height="194" viewBox="0 0 194 194" fill="none" xmlns="http://www.w3.org/2000/svg">
<g clip-path="url(#clip0_2936_18757)">
<path d="M194 100.609C194 98.2793 192.694 97.2382 190.1 96.7088C187.506 96.1971 185.953 95.9324 185.953 94.1148C185.953 92.809 186.995 92.0326 188.812 92.0326C191.141 92.0326 191.935 93.0737 191.935 94.3619L192.2 94.6266H193.241L193.506 94.3619C193.506 91.7679 191.424 90.7268 188.83 90.7268C185.971 90.7268 184.418 92.2797 184.418 94.0972C184.418 96.1794 185.971 97.2205 188.565 97.7323C191.159 98.244 192.465 98.5087 192.465 100.591C192.465 101.897 191.688 102.92 189.094 102.92C186.765 102.92 185.724 101.614 185.724 100.062L185.459 99.7968H184.418L184.154 100.062C184.154 102.391 185.971 104.208 189.094 104.208C192.465 104.208 194.035 102.655 194.035 100.573M182.865 97.9793L183.13 97.7146V96.9382C183.13 93.3031 181.048 90.7092 177.413 90.7092C173.778 90.7092 171.695 93.3031 171.695 96.9382V97.4499C171.695 101.085 173.513 104.208 177.66 104.208C181.295 104.208 182.601 101.879 182.848 100.309L182.583 100.044H181.542L181.277 100.309C180.766 101.861 179.724 102.903 177.642 102.903C174.272 102.903 173.231 99.7792 173.231 98.2264L173.495 97.9617H182.848L182.865 97.9793ZM181.313 96.6735H173.531L173.266 96.4088C173.266 94.5913 174.307 91.9973 177.413 91.9973C180.518 91.9973 181.56 94.5913 181.56 96.4088L181.295 96.6735H181.313ZM169.878 103.679V91.2562L169.613 90.9915H168.572L168.307 91.2562V103.714L168.572 103.979H169.613L169.878 103.714V103.679ZM169.878 88.6093V87.0564L169.613 86.7918H168.572L168.307 87.0564V88.6093L168.572 88.874H169.613L169.878 88.6093ZM160.014 102.885C157.42 102.885 155.849 101.067 155.849 97.4323C155.849 93.7972 157.402 91.9797 160.014 91.9797C162.625 91.9797 164.161 93.7972 164.161 97.4323C164.161 101.067 162.608 102.885 160.014 102.885ZM164.161 102.108C164.161 105.479 163.384 108.073 160.261 108.073C157.932 108.073 157.138 107.032 156.89 105.744L156.626 105.479H155.585L155.32 105.744C155.585 107.826 157.138 109.379 160.261 109.379C163.631 109.379 165.713 107.296 165.713 102.108V91.2562L165.449 90.9915H164.672L164.408 91.2562L164.143 92.809H163.878C163.367 91.7679 162.061 90.7268 159.731 90.7268C156.096 90.7268 154.279 93.5855 154.279 97.4852C154.279 101.385 156.096 104.244 159.731 104.244C162.061 104.244 163.367 103.203 163.878 102.161H164.143L164.161 102.108ZM147.291 91.9797C149.885 91.9797 151.703 94.0619 151.703 97.4323C151.703 100.803 149.885 102.885 147.291 102.885C144.697 102.885 142.88 100.803 142.88 97.4323C142.88 94.0619 144.697 91.9797 147.291 91.9797ZM147.291 104.191C150.661 104.191 153.255 101.861 153.255 97.4323C153.255 93.0031 150.661 90.6739 147.291 90.6739C143.921 90.6739 141.327 93.0031 141.327 97.4323C141.327 101.861 143.921 104.191 147.291 104.191ZM139.492 103.679V86.0683L139.227 85.8036H138.186L137.921 86.0683V103.714L138.186 103.979H139.227L139.492 103.714V103.679ZM130.139 91.9973C132.733 91.9973 134.551 94.0795 134.551 97.4499C134.551 100.82 132.733 102.903 130.139 102.903C127.545 102.903 125.728 100.82 125.728 97.4499C125.728 94.0795 127.545 91.9973 130.139 91.9973ZM130.139 104.208C133.51 104.208 136.104 101.879 136.104 97.4499C136.104 93.0208 133.51 90.6915 130.139 90.6915C126.769 90.6915 124.175 93.0208 124.175 97.4499C124.175 101.879 126.769 104.208 130.139 104.208ZM122.604 103.697V95.9324C122.604 92.562 120.787 90.7445 117.928 90.7445C116.111 90.7445 114.558 91.5209 113.781 92.8267H113.517L113.252 91.2738L112.987 91.0091H112.211L111.946 91.2738V103.732L112.211 103.997H113.252L113.517 103.732V96.7264C113.517 93.8678 114.822 92.0503 117.663 92.0503C119.746 92.0503 121.034 93.3561 121.034 95.95V103.75L121.299 104.014H122.34L122.604 103.75V103.697ZM109.37 103.697V95.9324C109.37 92.562 107.552 90.7445 104.694 90.7445C102.876 90.7445 101.323 91.5209 100.547 92.8267H100.282V86.0683L100.017 85.8036H98.9763L98.7117 86.0683V103.714L98.9763 103.979H100.017L100.282 103.714V96.7088C100.282 93.8501 101.588 92.0326 104.429 92.0326C106.511 92.0326 107.799 93.3384 107.799 95.9324V103.732L108.064 103.997H109.105L109.37 103.732V103.697ZM87.0477 97.4676C87.0477 93.8325 88.8652 92.015 91.4592 92.015C94.0531 92.015 95.0942 93.5678 95.3589 95.1383L95.6236 95.403H96.6647L96.9294 95.1383C96.6647 92.5443 94.6001 90.7268 91.4768 90.7268C88.1064 90.7268 85.5125 92.809 85.5125 97.4852C85.5125 102.161 88.1064 104.244 91.4768 104.244C94.6001 104.244 96.6647 102.426 96.9294 99.8321L96.6647 99.5674H95.6236L95.3589 99.8321C95.0942 101.385 94.0531 102.955 91.4592 102.955C88.8652 102.955 87.0477 101.138 87.0477 97.5029M84.189 98.0146L84.4537 97.7499V96.9735C84.4537 93.3384 82.3715 90.7445 78.7364 90.7445C75.1013 90.7445 73.0191 93.3384 73.0191 96.9735V97.4852C73.0191 101.12 74.8366 104.244 78.9834 104.244C82.6185 104.244 83.9243 101.914 84.1714 100.344L83.9067 100.079H82.8656L82.6009 100.344C82.0891 101.897 81.048 102.938 78.9658 102.938C75.5954 102.938 74.5543 99.8145 74.5543 98.2616L74.819 97.997H84.1714L84.189 98.0146ZM82.6362 96.7088H74.8543L74.5896 96.4441C74.5896 94.6266 75.6307 92.0326 78.7364 92.0326C81.8421 92.0326 82.9009 94.6266 82.9009 96.4441L82.6362 96.7088ZM75.6307 86.8447V86.0683L75.366 85.8036H61.8668L61.6021 86.0683V86.8447L61.8668 87.1094H67.5841L67.8488 87.3741V103.714L68.1135 103.979H69.1546L69.4193 103.714V87.3564L69.684 87.0917H75.4013L75.666 86.827L75.6307 86.8447ZM61.5845 100.362V103.979H49.8499V85.8036H53.9791V100.362H61.5845ZM7.37602 103.979C11.6111 103.979 15.1579 101.085 16.1814 97.1852L26.469 105.214L36.7389 97.1852V103.979H48.4735V100.362H40.8681V85.8036H36.7389V92.5973L26.8748 100.291L24.6691 98.5616L29.3806 94.8736L34.5156 90.8503L31.5863 88.5564L21.7222 96.25L19.5165 94.5207L29.3806 86.8623L26.4513 84.5684L16.1637 92.5973C15.6575 90.6486 14.5177 88.9235 12.9236 87.6936C11.3296 86.4637 9.37176 85.7988 7.35838 85.8036H0V103.979H7.37602ZM4.12916 100.362V89.421H7.37602C10.1112 89.421 12.3345 91.8738 12.3345 94.8913C12.3345 97.9087 10.1112 100.362 7.37602 100.362H4.12916Z" fill="#F5F5F5"/>
</g>
<defs>
<clipPath id="clip0_2936_18757">
<rect width="194" height="194" fill="white"/>
</clipPath>
</defs>
</svg>
