<svg width="194" height="194" viewBox="0 0 194 194" fill="none" xmlns="http://www.w3.org/2000/svg">
<path d="M90.31 102.805H82.875L81.493 106.221H76.418L84.332 87.5811H89.23L96.867 106.221H91.692L90.31 102.805ZM88.854 99.1371L86.744 92.4551L84.332 99.1371H88.854ZM122.113 105.669C121.711 105.92 121.217 106.113 120.63 106.247C120.061 106.381 118.696 106.447 118.043 106.447C117.783 106.447 118.285 106.438 118.043 106.42C116.63 106.31 115.517 105.885 114.702 105.141C113.747 104.271 113.27 102.972 113.27 101.247V96.1731H111.87L110.817 92.6061H113.27V87.5801H118.043V92.6051H121.158V96.1721H118.043V101.196C118.043 101.682 118.169 102.067 118.42 102.352C118.688 102.62 119.04 102.754 119.475 102.754C120.028 102.754 120.513 102.611 120.932 102.327L122.112 105.667L122.113 105.669ZM137.301 92.6061V106.22H132.754V104.763C132.255 105.314 131.636 105.744 130.946 106.019C130.235 106.305 129.476 106.451 128.71 106.447C126.951 106.447 125.545 105.927 124.49 104.889C123.451 103.851 122.932 102.293 122.932 100.216V92.6051H127.705V99.4381C127.705 100.459 127.897 101.204 128.283 101.673C128.668 102.143 129.229 102.377 129.966 102.377C130.72 102.377 131.331 102.117 131.8 101.598C132.285 101.062 132.528 100.25 132.528 99.1611V92.6051L137.301 92.6061ZM145.285 92.3801C147.546 92.3801 149.271 92.8991 150.46 93.9371C151.65 94.9591 152.244 96.5331 152.244 98.6601V106.221H147.798V104.463C147.111 105.786 145.771 106.448 143.778 106.448C142.723 106.448 141.81 106.263 141.04 105.895C140.27 105.526 139.683 105.032 139.281 104.413C138.896 103.776 138.704 103.056 138.704 102.253C138.704 100.963 139.198 99.9661 140.186 99.2631C141.174 98.5431 142.698 98.1831 144.758 98.1831H147.471C147.387 96.7431 146.424 96.0221 144.582 96.0221C143.907 96.0256 143.237 96.136 142.597 96.3491C141.927 96.5491 141.358 96.8341 140.889 97.2031V93.1981C140.889 93.1981 140.948 93.0741 142.019 92.8061C143.085 92.5248 144.183 92.3823 145.285 92.3801ZM145.11 103.433C145.662 103.433 146.148 103.299 146.567 103.031C146.985 102.763 147.287 102.37 147.471 101.851V100.67H145.411C144.021 100.67 143.326 101.13 143.326 102.051C143.326 102.47 143.486 102.805 143.803 103.056C144.121 103.307 144.557 103.433 145.11 103.433ZM154.292 87.5811H159.065V106.221H154.292V87.5811Z" fill="#F5F5F5"/>
<path fill-rule="evenodd" clip-rule="evenodd" d="M99.789 105.561C100.933 106.159 102.224 106.458 103.661 106.458C105.098 106.458 106.388 106.158 107.533 105.561C108.677 104.964 109.573 104.137 110.223 103.081C110.648 102.382 110.938 101.61 111.08 100.804H106.448C106.224 101.474 105.77 102.044 105.168 102.414C104.723 102.681 104.22 102.814 103.661 102.814C103.101 102.814 102.593 102.681 102.135 102.414C101.683 102.127 101.315 101.726 101.067 101.251C100.8 100.742 100.667 100.151 100.667 99.477C100.667 98.803 100.8 98.217 101.067 97.722C101.334 97.213 101.69 96.826 102.135 96.558C102.593 96.278 103.101 96.138 103.661 96.138C104.221 96.138 104.723 96.278 105.168 96.558C105.625 96.826 105.988 97.213 106.255 97.722C106.322 97.847 106.381 97.977 106.431 98.112H111.073C110.929 97.3255 110.641 96.5725 110.223 95.891C109.575 94.8248 108.644 93.9596 107.533 93.392C106.388 92.795 105.098 92.496 103.661 92.496C102.224 92.496 100.933 92.795 99.789 93.392C98.645 93.99 97.749 94.822 97.099 95.891C96.451 96.946 96.127 98.141 96.127 99.477C96.127 100.812 96.451 102.013 97.1 103.082C97.748 104.137 98.645 104.963 99.789 105.561ZM111.171 98.865V100.089C111.204 99.6816 111.204 99.2724 111.171 98.865ZM34 106.472L50.674 116L67.348 106.472V87.528L50.674 78L34 87.528V106.472ZM58.572 102.184V110.482L51.266 106.359L58.572 102.184ZM59.157 101.176V92.88L66.463 97.003L59.157 101.176ZM59.457 101.679L66.763 97.504V105.801L59.457 101.679ZM59.157 102.181L66.463 106.304L59.157 110.479V102.181ZM50.967 115.159L58.272 110.984L50.966 106.862L50.967 115.159ZM58.572 83.521V91.874L51.264 87.698L58.572 83.521ZM58.275 83.017L50.966 87.194V78.84L58.275 83.017ZM43.073 83.017L50.38 78.841V87.194L43.073 83.017ZM42.776 83.521L50.084 87.698L42.776 91.874V83.521ZM42.191 83.521V91.874L34.882 87.698L42.191 83.52V83.521ZM41.891 92.377L34.585 88.202V96.499L41.891 92.377ZM34.585 105.8V97.503L41.891 101.678L34.585 105.8ZM34.885 106.303L42.19 102.18V110.478L34.885 106.303ZM50.381 106.861L43.076 110.983L50.381 115.158V106.861ZM42.776 102.183V110.481L50.081 106.358L42.776 102.183ZM42.19 92.88V101.177L34.885 97.002L42.191 92.879L42.19 92.88ZM59.156 91.875V83.521L66.465 87.698L59.156 91.875ZM66.762 96.5V88.203L59.456 92.378L66.762 96.5ZM42.945 92.284C42.8779 92.2502 42.8004 92.2436 42.7286 92.2656C42.6568 92.2876 42.5963 92.3366 42.5597 92.4022C42.5232 92.4678 42.5134 92.545 42.5325 92.6177C42.5515 92.6903 42.5979 92.7528 42.662 92.792L50.39 97.129V106.031C50.39 106.108 50.4206 106.182 50.4749 106.236C50.5293 106.29 50.6031 106.321 50.68 106.321C50.7569 106.321 50.8307 106.29 50.8851 106.236C50.9394 106.182 50.97 106.108 50.97 106.031V97.129L58.698 92.792C58.7654 92.7545 58.8151 92.6917 58.8362 92.6175C58.8573 92.5434 58.848 92.4639 58.8105 92.3965C58.773 92.3291 58.7102 92.2794 58.6361 92.2583C58.5619 92.2372 58.4824 92.2465 58.415 92.284L50.68 96.625L42.945 92.285V92.284Z" fill="#F5F5F5"/>
</svg>
