<?xml version="1.0" encoding="UTF-8"?><svg version="1.1" width="370px" height="56px" viewBox="0 0 370.0 56.0" xmlns="http://www.w3.org/2000/svg" xmlns:xlink="http://www.w3.org/1999/xlink"><defs><clipPath id="i0"><path d="M365,0 C367.761424,-5.07265313e-16 370,2.23857625 370,5 L370,51 C370,53.7614237 367.761424,56 365,56 L5,56 C2.23857625,56 3.38176876e-16,53.7614237 0,51 L0,5 C-3.38176876e-16,2.23857625 2.23857625,5.07265313e-16 5,0 L365,0 Z"></path></clipPath><clipPath id="i1"><path d="M370,0 L370,56 L0,56 L0,0 L370,0 Z"></path></clipPath><clipPath id="i2"><path d="M19,10.6 L19,20 L8.7,18.5 L8.7,10.6 L19,10.6 Z M7.8,10.5 L7.8,18.4 L0.1,17.3 L0.1,10.5 L7.8,10.5 Z M7.7,1.7 L7.7,9.6 L0,9.6 L0,2.8 L7.7,1.7 Z M19,0 L19,9.5 L8.7,9.6 L8.7,1.6 L19,0 Z"></path></clipPath></defs><g clip-path="url(#i0)"><g clip-path="url(#i1)"><polygon points="0,0 370,0 370,56 0,56 0,0" stroke="none" fill="#2779FF"></polygon></g></g><g transform="translate(131.0 18.000000000000004)"><g transform="translate(0.0 1.0)"><text transform="translate(0.0 14.0)" font-family="Cabin-Regular_Bold, Cabin" font-size="14.0" font-weight="bold" fill="#FFFFFF">DOWNLOAD</text></g><g transform="translate(89.0 0.0)"><g clip-path="url(#i2)"><polygon points="0,0 19,0 19,20 0,20 0,0" stroke="none" fill="#FFFFFF"></polygon></g></g></g></svg>