<?xml version="1.0" encoding="UTF-8"?>
<svg id="Layer_2" data-name="Layer 2" xmlns="http://www.w3.org/2000/svg" viewBox="0 0 32 28.01">
  <defs>
    <style>
      .cls-1 {
        stroke-width: 1.6px;
        }

      .cls-1, .cls-2 {
        fill: none;
stroke: #000;
        stroke-miterlimit: 10;
      }

      .cls-2 {
        stroke-width: 2px;
              }

      .cls-3 {
        stroke-width: 0px;
      }
    </style>
  </defs>
  <g id="icons">
    <g id="Workspace">
      <g>
        <path class="cls-3" d="M16.61,6.82c-.36-.29-.88-.29-1.24,0L0,16.01l1,1.57,1-.57v9c0,1.1.9,2,2,2h24c1.1,0,2-.9,2-2v-9l.98.56,1.02-1.56-15.39-9.2ZM4,26.01v-9.94l12-7.2,12,7.21v9.93H4Z"/>
        <rect class="cls-1" x="15.81" y=".8" width="6" height="3.82"/>
        <path class="cls-2" d="M13,26.88v-6.95c0-.55.45-1,1-1h4c.55,0,1,.45,1,1v6.95"/>
        <rect class="cls-3" x="6" y="18.01" width="4" height="4"/>
        <rect class="cls-3" x="22.06" y="18.01" width="4" height="4"/>
        <rect class="cls-3" x="15.01" y="3.98" width="2" height="4.01"/>
      </g>
    </g>
  </g>
</svg>