<svg width="30" height="36" viewBox="0 0 40 40" fill="none" xmlns="http://www.w3.org/2000/svg">
<rect width="40" height="40" rx="20" fill="black"/>
<rect x="12" y="12" width="16" height="16" rx="8" fill="white" style="mix-blend-mode:multiply"/>
<path d="M25.4967 20.3797C25.4967 20.2547 25.4967 20.1297 25.4967 19.9997C25.4967 19.8697 25.4967 19.7447 25.4967 19.6147L26.4567 18.7747C26.6337 18.6187 26.7498 18.4052 26.7846 18.1719C26.8193 17.9386 26.7705 17.7005 26.6467 17.4997L25.4667 15.4997C25.379 15.3478 25.253 15.2217 25.1011 15.1339C24.9493 15.0462 24.7771 14.9999 24.6017 14.9997C24.493 14.9989 24.3849 15.0158 24.2817 15.0497L23.0667 15.4597C22.8569 15.3203 22.6381 15.195 22.4117 15.0847L22.1567 13.8247C22.111 13.5945 21.9858 13.3877 21.8029 13.2406C21.6201 13.0934 21.3914 13.0152 21.1567 13.0197H18.8167C18.5821 13.0152 18.3533 13.0934 18.1705 13.2406C17.9877 13.3877 17.8624 13.5945 17.8167 13.8247L17.5617 15.0847C17.3337 15.195 17.1132 15.3203 16.9017 15.4597L15.7117 15.0297C15.6074 15.0025 15.4993 14.9924 15.3917 14.9997C15.2163 14.9999 15.0441 15.0462 14.8923 15.1339C14.7405 15.2217 14.6144 15.3478 14.5267 15.4997L13.3467 17.4997C13.23 17.7002 13.1866 17.935 13.224 18.164C13.2614 18.393 13.3773 18.6018 13.5517 18.7547L14.4967 19.6197C14.4967 19.7447 14.4967 19.8697 14.4967 19.9997C14.4967 20.1297 14.4967 20.2547 14.4967 20.3847L13.5517 21.2247C13.3723 21.3787 13.2533 21.5913 13.2158 21.8247C13.1783 22.0581 13.2247 22.2973 13.3467 22.4997L14.5267 24.4997C14.6144 24.6516 14.7405 24.7777 14.8923 24.8655C15.0441 24.9532 15.2163 24.9995 15.3917 24.9997C15.5004 25.0005 15.6085 24.9837 15.7117 24.9497L16.9267 24.5397C17.1365 24.6791 17.3553 24.8044 17.5817 24.9147L17.8367 26.1747C17.8824 26.4049 18.0077 26.6117 18.1905 26.7589C18.3733 26.906 18.6021 26.9842 18.8367 26.9797H21.1967C21.4314 26.9842 21.6601 26.906 21.8429 26.7589C22.0258 26.6117 22.151 26.4049 22.1967 26.1747L22.4517 24.9147C22.6797 24.8044 22.9002 24.6791 23.1117 24.5397L24.3217 24.9497C24.4249 24.9837 24.533 25.0005 24.6417 24.9997C24.8171 24.9995 24.9893 24.9532 25.1411 24.8655C25.293 24.7777 25.419 24.6516 25.5067 24.4997L26.6467 22.4997C26.7634 22.2992 26.8068 22.0644 26.7694 21.8354C26.732 21.6065 26.6161 21.3977 26.4417 21.2447L25.4967 20.3797ZM24.6017 23.9997L22.8867 23.4197C22.4852 23.7598 22.0264 24.0256 21.5317 24.2047L21.1767 25.9997H18.8167L18.4617 24.2247C17.9709 24.0405 17.5146 23.7751 17.1117 23.4397L15.3917 23.9997L14.2117 21.9997L15.5717 20.7997C15.4793 20.2821 15.4793 19.7523 15.5717 19.2347L14.2117 17.9997L15.3917 15.9997L17.1067 16.5797C17.5082 16.2397 17.967 15.9738 18.4617 15.7947L18.8167 13.9997H21.1767L21.5317 15.7747C22.0225 15.9589 22.4788 16.2243 22.8817 16.5597L24.6017 15.9997L25.7817 17.9997L24.4217 19.1997C24.5142 19.7173 24.5142 20.2471 24.4217 20.7647L25.7817 21.9997L24.6017 23.9997Z" fill="white"/>
<path d="M19.9967 22.9997C19.4034 22.9997 18.8233 22.8238 18.33 22.4941C17.8366 22.1645 17.4521 21.6959 17.2251 21.1478C16.998 20.5996 16.9386 19.9964 17.0544 19.4144C17.1701 18.8325 17.4558 18.298 17.8754 17.8784C18.2949 17.4588 18.8295 17.1731 19.4114 17.0574C19.9934 16.9416 20.5966 17.001 21.1448 17.2281C21.6929 17.4551 22.1615 17.8397 22.4911 18.333C22.8208 18.8264 22.9967 19.4064 22.9967 19.9997C23.0007 20.3948 22.9259 20.7867 22.7765 21.1525C22.6272 21.5183 22.4063 21.8506 22.127 22.13C21.8476 22.4094 21.5153 22.6302 21.1495 22.7795C20.7837 22.9289 20.3918 23.0037 19.9967 22.9997ZM19.9967 17.9997C19.7324 17.9936 19.4696 18.0411 19.2241 18.1394C18.9787 18.2377 18.7557 18.3848 18.5688 18.5718C18.3818 18.7587 18.2347 18.9817 18.1364 19.2271C18.0381 19.4726 17.9906 19.7354 17.9967 19.9997C17.9906 20.264 18.0381 20.5269 18.1364 20.7723C18.2347 21.0177 18.3818 21.2407 18.5688 21.4276C18.7557 21.6146 18.9787 21.7617 19.2241 21.86C19.4696 21.9583 19.7324 22.0059 19.9967 21.9997C20.261 22.0059 20.5239 21.9583 20.7693 21.86C21.0147 21.7617 21.2377 21.6146 21.4246 21.4276C21.6116 21.2407 21.7587 21.0177 21.857 20.7723C21.9553 20.5269 22.0029 20.264 21.9967 19.9997C22.0029 19.7354 21.9553 19.4726 21.857 19.2271C21.7587 18.9817 21.6116 18.7587 21.4246 18.5718C21.2377 18.3848 21.0147 18.2377 20.7693 18.1394C20.5239 18.0411 20.261 17.9936 19.9967 17.9997Z" fill="white"/>
</svg>
