<svg width="125" height="110" viewBox="0 0 125 110" fill="none" xmlns="http://www.w3.org/2000/svg">
<path d="M51.0068 10.375C42.1808 10.375 33.553 12.9922 26.2145 17.8957C18.8759 22.7991 13.1562 29.7686 9.77867 37.9228C6.40111 46.0769 5.51739 55.0495 7.23925 63.7059C8.96112 72.3623 13.2112 80.3137 19.4522 86.5546C25.6931 92.7956 33.6445 97.0457 42.3009 98.7675C50.9573 100.489 59.9299 99.6057 68.084 96.2281C76.2382 92.8506 83.2077 87.1309 88.1111 79.7923C93.0146 72.4538 95.6318 63.826 95.6318 55C95.6185 43.1688 90.9126 31.826 82.5467 23.4601C74.1808 15.0942 62.838 10.3883 51.0068 10.375ZM66.9443 20.2738C70.3198 21.8301 73.4506 23.8696 76.2384 26.3281L74.9239 29.5H66.9443V20.2738ZM42.6504 92.302C35.753 90.7694 29.4163 87.3526 24.3458 82.432C19.2752 77.5114 15.6698 71.28 13.9309 64.4317C12.1921 57.5834 12.388 50.3869 14.4969 43.6433C16.6057 36.8997 20.5448 30.8738 25.8756 26.2363L30.1758 32.6875H40.8294L36.0482 45.4375H23.2096L18.8025 58.6577L26.9883 70.9375H42.9258L47.49 77.7827L42.6504 92.302ZM51.0068 93.25C50.3585 93.25 49.7267 93.1862 49.0863 93.1544L53.5383 79.7988C53.8479 78.8785 53.9418 77.8994 53.8128 76.9371C53.6838 75.9747 53.3354 75.0549 52.7943 74.2487L48.2302 67.4035C47.649 66.5291 46.8606 65.8121 45.9351 65.3164C45.0095 64.8207 43.9758 64.5617 42.9258 64.5625H30.399L25.8361 57.7173L27.804 51.8125H35.0693V58.1875H41.4443V49.2026L50.8038 24.2445L44.8348 22.0062L43.2201 26.3125H33.5877L31.0148 22.4528C35.3755 19.7308 40.2481 17.9321 45.3315 17.1678C50.4149 16.4034 55.601 16.6898 60.5693 18.0091V29.5C60.5714 31.1901 61.2437 32.8104 62.4388 34.0055C63.6339 35.2006 65.2542 35.8729 66.9443 35.875H75.1862C76.0238 35.8773 76.8536 35.7135 77.6274 35.3929C78.4012 35.0723 79.1037 34.6014 79.6943 34.0074L80.1425 33.559L81.0407 31.3915C83.6138 34.6608 85.6354 38.3287 87.0255 42.25H72.0398C70.5329 42.2452 69.0733 42.7764 67.9219 43.7486C66.7705 44.7208 66.0022 46.0707 65.7544 47.5572L63.8524 58.5266C63.622 59.8258 63.8024 61.1645 64.3686 62.3563C64.9348 63.5481 65.8586 64.5337 67.0112 65.1758L73.9112 69.8416L78.5602 81.4633C75.0022 85.1877 70.7262 88.1524 65.9905 90.1783C61.2548 92.2041 56.1576 93.249 51.0068 93.25ZM79.103 65.658L70.4505 59.8093L70.1318 59.618L72.0398 48.625H88.6808C90.3506 58.0298 88.3617 67.717 83.1215 75.7031L79.103 65.658Z" fill="#277AFF"/>
<mask id="path-2-outside-1_1765_14737" maskUnits="userSpaceOnUse" x="55.6943" y="57.875" width="58" height="32" fill="black">
<rect fill="white" x="55.6943" y="57.875" width="58" height="32"/>
<path fill-rule="evenodd" clip-rule="evenodd" d="M69.7568 60.875H62.3818C61.4038 60.875 60.4659 61.2701 59.7743 61.9734C59.0828 62.6766 58.6943 63.6304 58.6943 64.625V87.125H62.3818V77.75H69.7568V87.125H73.4443V64.625C73.4443 63.6304 73.0558 62.6766 72.3642 61.9734C71.6727 61.2701 70.7348 60.875 69.7568 60.875ZM62.3818 74V64.625H69.7568V74H62.3818ZM95.5693 64.625H101.101V83.375H95.5693V87.125H110.319V83.375H104.788V64.625H110.319V60.875H95.5693V64.625ZM77.1318 87.125H80.8193V77.75H88.1943C89.1723 77.75 90.1102 77.3549 90.8017 76.6516C91.4933 75.9484 91.8818 74.9946 91.8818 74V64.625C91.8818 63.6304 91.4933 62.6766 90.8017 61.9734C90.1102 61.2701 89.1723 60.875 88.1943 60.875H77.1318V87.125ZM88.1943 74H80.8193V64.625H88.1943V74Z"/>
</mask>
<path fill-rule="evenodd" clip-rule="evenodd" d="M69.7568 60.875H62.3818C61.4038 60.875 60.4659 61.2701 59.7743 61.9734C59.0828 62.6766 58.6943 63.6304 58.6943 64.625V87.125H62.3818V77.75H69.7568V87.125H73.4443V64.625C73.4443 63.6304 73.0558 62.6766 72.3642 61.9734C71.6727 61.2701 70.7348 60.875 69.7568 60.875ZM62.3818 74V64.625H69.7568V74H62.3818ZM95.5693 64.625H101.101V83.375H95.5693V87.125H110.319V83.375H104.788V64.625H110.319V60.875H95.5693V64.625ZM77.1318 87.125H80.8193V77.75H88.1943C89.1723 77.75 90.1102 77.3549 90.8017 76.6516C91.4933 75.9484 91.8818 74.9946 91.8818 74V64.625C91.8818 63.6304 91.4933 62.6766 90.8017 61.9734C90.1102 61.2701 89.1723 60.875 88.1943 60.875H77.1318V87.125ZM88.1943 74H80.8193V64.625H88.1943V74Z" fill="#277AFF"/>
<path d="M58.6943 87.125H56.1943V89.625H58.6943V87.125ZM62.3818 87.125V89.625H64.8818V87.125H62.3818ZM62.3818 77.75V75.25H59.8818V77.75H62.3818ZM69.7568 77.75H72.2568V75.25H69.7568V77.75ZM69.7568 87.125H67.2568V89.625H69.7568V87.125ZM73.4443 87.125V89.625H75.9443V87.125H73.4443ZM72.3642 61.9734L74.1468 60.2205L74.1468 60.2205L72.3642 61.9734ZM62.3818 64.625V62.125H59.8818V64.625H62.3818ZM62.3818 74H59.8818V76.5H62.3818V74ZM69.7568 64.625H72.2568V62.125H69.7568V64.625ZM69.7568 74V76.5H72.2568V74H69.7568ZM101.101 64.625H103.601V62.125H101.101V64.625ZM95.5693 64.625H93.0693V67.125H95.5693V64.625ZM101.101 83.375V85.875H103.601V83.375H101.101ZM95.5693 83.375V80.875H93.0693V83.375H95.5693ZM95.5693 87.125H93.0693V89.625H95.5693V87.125ZM110.319 87.125V89.625H112.819V87.125H110.319ZM110.319 83.375H112.819V80.875H110.319V83.375ZM104.788 83.375H102.288V85.875H104.788V83.375ZM104.788 64.625V62.125H102.288V64.625H104.788ZM110.319 64.625V67.125H112.819V64.625H110.319ZM110.319 60.875H112.819V58.375H110.319V60.875ZM95.5693 60.875V58.375H93.0693V60.875H95.5693ZM80.8193 87.125V89.625H83.3193V87.125H80.8193ZM77.1318 87.125H74.6318V89.625H77.1318V87.125ZM80.8193 77.75V75.25H78.3193V77.75H80.8193ZM90.8017 76.6516L89.0192 74.8988L89.0192 74.8988L90.8017 76.6516ZM77.1318 60.875V58.375H74.6318V60.875H77.1318ZM80.8193 74H78.3193V76.5H80.8193V74ZM88.1943 74V76.5H90.6943V74H88.1943ZM80.8193 64.625V62.125H78.3193V64.625H80.8193ZM88.1943 64.625H90.6943V62.125H88.1943V64.625ZM62.3818 63.375H69.7568V58.375H62.3818V63.375ZM61.5569 63.7262C61.7829 63.4963 62.0805 63.375 62.3818 63.375V58.375C60.7271 58.375 59.1488 59.0439 57.9918 60.2205L61.5569 63.7262ZM61.1943 64.625C61.1943 64.28 61.3294 63.9575 61.5569 63.7262L57.9918 60.2205C56.8361 61.3957 56.1943 62.9808 56.1943 64.625H61.1943ZM61.1943 87.125V64.625H56.1943V87.125H61.1943ZM62.3818 84.625H58.6943V89.625H62.3818V84.625ZM59.8818 77.75V87.125H64.8818V77.75H59.8818ZM69.7568 75.25H62.3818V80.25H69.7568V75.25ZM72.2568 87.125V77.75H67.2568V87.125H72.2568ZM73.4443 84.625H69.7568V89.625H73.4443V84.625ZM70.9443 64.625V87.125H75.9443V64.625H70.9443ZM70.5817 63.7262C70.8091 63.9575 70.9443 64.28 70.9443 64.625H75.9443C75.9443 62.9808 75.3024 61.3957 74.1468 60.2205L70.5817 63.7262ZM69.7568 63.375C70.058 63.375 70.3556 63.4963 70.5817 63.7262L74.1468 60.2205C72.9898 59.0439 71.4115 58.375 69.7568 58.375V63.375ZM59.8818 64.625V74H64.8818V64.625H59.8818ZM69.7568 62.125H62.3818V67.125H69.7568V62.125ZM72.2568 74V64.625H67.2568V74H72.2568ZM62.3818 76.5H69.7568V71.5H62.3818V76.5ZM101.101 62.125H95.5693V67.125H101.101V62.125ZM103.601 83.375V64.625H98.6005V83.375H103.601ZM95.5693 85.875H101.101V80.875H95.5693V85.875ZM98.0693 87.125V83.375H93.0693V87.125H98.0693ZM110.319 84.625H95.5693V89.625H110.319V84.625ZM107.819 83.375V87.125H112.819V83.375H107.819ZM104.788 85.875H110.319V80.875H104.788V85.875ZM102.288 64.625V83.375H107.288V64.625H102.288ZM110.319 62.125H104.788V67.125H110.319V62.125ZM107.819 60.875V64.625H112.819V60.875H107.819ZM95.5693 63.375H110.319V58.375H95.5693V63.375ZM98.0693 64.625V60.875H93.0693V64.625H98.0693ZM80.8193 84.625H77.1318V89.625H80.8193V84.625ZM78.3193 77.75V87.125H83.3193V77.75H78.3193ZM88.1943 75.25H80.8193V80.25H88.1943V75.25ZM89.0192 74.8988C88.7931 75.1287 88.4955 75.25 88.1943 75.25V80.25C89.849 80.25 91.4273 79.5811 92.5843 78.4045L89.0192 74.8988ZM89.3818 74C89.3818 74.345 89.2466 74.6675 89.0192 74.8988L92.5843 78.4045C93.7399 77.2293 94.3818 75.6442 94.3818 74H89.3818ZM89.3818 64.625V74H94.3818V64.625H89.3818ZM89.0192 63.7262C89.2466 63.9575 89.3818 64.28 89.3818 64.625H94.3818C94.3818 62.9808 93.7399 61.3957 92.5843 60.2205L89.0192 63.7262ZM88.1943 63.375C88.4955 63.375 88.7931 63.4963 89.0192 63.7262L92.5843 60.2205C91.4273 59.0439 89.849 58.375 88.1943 58.375V63.375ZM77.1318 63.375H88.1943V58.375H77.1318V63.375ZM79.6318 87.125V60.875H74.6318V87.125H79.6318ZM80.8193 76.5H88.1943V71.5H80.8193V76.5ZM78.3193 64.625V74H83.3193V64.625H78.3193ZM88.1943 62.125H80.8193V67.125H88.1943V62.125ZM90.6943 74V64.625H85.6943V74H90.6943Z" fill="#F6F6F6" mask="url(#path-2-outside-1_1765_14737)"/>
</svg>
