<?xml version="1.0" encoding="UTF-8"?>
<svg width="1em" height="1em" viewBox="0 0 52 52" version="1.1" xmlns="http://www.w3.org/2000/svg" xmlns:xlink="http://www.w3.org/1999/xlink">
    <title>Web/Info Stakeholders Icon</title>
    <g id="Page-1" stroke="none" stroke-width="1" fill="none" fill-rule="evenodd">
        <g id="PCDC-Page-Web" transform="translate(-626.000000, -643.000000)">
            <g id="Provides-key-info.." transform="translate(626.000000, 637.000000)">
                <g id="Group-29" transform="translate(0.000000, 6.000000)">
                    <polygon id="Fill-1" fill="#151820" points="0 52 52 52 52 0 0 0"></polygon>
                    <g id="Group-28" transform="translate(8.282676, 6.107227)" stroke="#FFFFFF" stroke-width="1.5">
                        <path d="M25.4170222,19.8927733 C25.4170222,24.1452178 21.97,27.59224 17.7175556,27.59224 C13.4651111,27.59224 10.0180889,24.1452178 10.0180889,19.8927733 C10.0180889,15.6403289 13.4651111,12.1933067 17.7175556,12.1933067 C21.97,12.1933067 25.4170222,15.6403289 25.4170222,19.8927733 Z" id="Stroke-2"></path>
                        <path d="M20.4949333,37.0075911 C20.4949333,38.5421689 19.2515556,39.7855467 17.7169778,39.7855467 C16.1835556,39.7855467 14.9401778,38.5421689 14.9401778,37.0075911 C14.9401778,35.4730133 16.1835556,34.2296356 17.7169778,34.2296356 C19.2515556,34.2296356 20.4949333,35.4730133 20.4949333,37.0075911 Z" id="Stroke-4"></path>
                        <path d="M20.4949333,2.77795556 C20.4949333,4.31253333 19.2515556,5.55591111 17.7169778,5.55591111 C16.1835556,5.55591111 14.9401778,4.31253333 14.9401778,2.77795556 C14.9401778,1.24337778 16.1835556,0 17.7169778,0 C19.2515556,0 20.4949333,1.24337778 20.4949333,2.77795556 Z" id="Stroke-6"></path>
                        <path d="M5.55475556,28.5184178 C5.55475556,30.0529956 4.31137778,31.2963733 2.7768,31.2963733 C1.24337778,31.2963733 0,30.0529956 0,28.5184178 C0,26.98384 1.24337778,25.7404622 2.7768,25.7404622 C4.31137778,25.7404622 5.55475556,26.98384 5.55475556,28.5184178 Z" id="Stroke-8"></path>
                        <path d="M35.1246133,11.4463556 C35.1246133,12.9809333 33.8812356,14.2243111 32.3466578,14.2243111 C30.8132356,14.2243111 29.5698578,12.9809333 29.5698578,11.4463556 C29.5698578,9.91177778 30.8132356,8.6684 32.3466578,8.6684 C33.8812356,8.6684 35.1246133,9.91177778 35.1246133,11.4463556 Z" id="Stroke-10"></path>
                        <path d="M35.4349956,28.5184178 C35.4349956,30.0529956 34.1916178,31.2963733 32.65704,31.2963733 C31.1236178,31.2963733 29.88024,30.0529956 29.88024,28.5184178 C29.88024,26.98384 31.1236178,25.7404622 32.65704,25.7404622 C34.1916178,25.7404622 35.4349956,26.98384 35.4349956,28.5184178 Z" id="Stroke-12"></path>
                        <path d="M5.55475556,11.4463556 C5.55475556,12.9809333 4.31137778,14.2243111 2.7768,14.2243111 C1.24337778,14.2243111 0,12.9809333 0,11.4463556 C0,9.91177778 1.24337778,8.6684 2.7768,8.6684 C4.31137778,8.6684 5.55475556,9.91177778 5.55475556,11.4463556 Z" id="Stroke-14"></path>
                        <line x1="17.7173244" y1="27.5924711" x2="17.7173244" y2="34.2299822" id="Stroke-16"></line>
                        <line x1="17.7173244" y1="5.55556444" x2="17.7173244" y2="12.1930756" id="Stroke-18"></line>
                        <line x1="30.1336533" y1="27.0613778" x2="24.3847644" y2="23.7426222" id="Stroke-20"></line>
                        <line x1="11.0505778" y1="16.0437333" x2="5.30053333" y2="12.7238222" id="Stroke-22"></line>
                        <line x1="30.1336533" y1="12.7241689" x2="24.2680533" y2="16.1111022" id="Stroke-24"></line>
                        <line x1="11.0528889" y1="23.7404267" x2="5.30053333" y2="27.0614933" id="Stroke-26"></line>
                    </g>
                </g>
            </g>
        </g>
    </g>
</svg>