<?xml version="1.0" encoding="UTF-8"?>
<svg width="1em" height="1em" viewBox="0 0 52 52" version="1.1" xmlns="http://www.w3.org/2000/svg" xmlns:xlink="http://www.w3.org/1999/xlink">
    <title>Web Upload Icon</title>
    <g id="Page-1" stroke="none" stroke-width="1" fill="none" fill-rule="evenodd">
        <g id="PCDC-Page-Web" transform="translate(-626.000000, -475.000000)">
            <g id="Uploads-results-to..." transform="translate(626.000000, 471.000000)">
                <g id="Group-8" transform="translate(0.000000, 4.000000)">
                    <polygon id="Fill-1" fill="#151820" points="0 52 52 52 52 0 0 0"></polygon>
                    <path d="M21.2362222,30.7069244 L15.8929333,30.7069244 C11.7560444,30.7069244 8.41764444,27.3685244 8.41764444,23.2316356 C8.41764444,19.0959022 11.7560444,15.7563467 15.8929333,15.7563467 L16.2419111,15.7817689 C17.3373778,11.4703911 21.2004,8.28105778 25.8596,8.28105778 C31.3669778,8.28105778 35.8262667,12.7415022 35.8262667,18.2477244 L37.0731111,18.2477244 C40.5108889,18.2477244 43.3015556,21.0383911 43.3015556,24.4773244 C43.3015556,27.9162578 40.5108889,30.7069244 37.0731111,30.7069244 L30.5557778,30.7069244" id="Stroke-2" stroke="#FFFFFF" stroke-width="1.5"></path>
                    <g id="Group-7" transform="translate(25.438012, 30.983333) rotate(-180.000000) translate(-25.438012, -30.983333) translate(19.685787, 19.933333)" stroke="#FFFFFF" stroke-width="1.5">
                        <line x1="5.6235691" y1="0" x2="5.6235691" y2="21.6666667" id="Stroke-2"></line>
                        <polyline id="Stroke-3" points="0 16.0333333 5.6235691 22.1 11.5044485 16.0333333"></polyline>
                    </g>
                </g>
            </g>
        </g>
    </g>
</svg>