<?xml version="1.0" encoding="UTF-8"?>
<svg width="1em" height="1em" viewBox="0 0 52 52" version="1.1" xmlns="http://www.w3.org/2000/svg" xmlns:xlink="http://www.w3.org/1999/xlink">
    <title>Web/Use Icon</title>
    <g id="Page-1" stroke="none" stroke-width="1" fill="none" fill-rule="evenodd">
        <g id="PCDC-Page-Web" transform="translate(-545.000000, -1676.000000)">
            <g id="Group-4" transform="translate(545.000000, 1676.000000)">
                <polygon id="Fill-1" fill="#151820" points="0 52 52 52 52 0 0 0"></polygon>
                <path d="M26,31.5135022 C22.9678222,31.5135022 20.4868444,29.0325244 20.4868444,26.0003467 C20.4868444,22.9681689 22.9678222,20.4860356 26,20.4860356 C29.0321778,20.4860356 31.5131556,22.9681689 31.5131556,26.0003467 C31.5131556,29.0325244 29.0321778,31.5135022 26,31.5135022 Z M36.9350222,27.4401689 C36.9962667,26.9802578 37.0274667,26.5053244 37.0274667,26.0003467 C37.0274667,25.5103911 36.9962667,25.0204356 36.92,24.5605244 L40.0284444,22.1407911 C40.3046222,21.9258578 40.3808889,21.5121689 40.2121778,21.2059467 L37.2724444,16.1215022 C37.0887111,15.7852356 36.7050667,15.6777689 36.3688,15.7852356 L32.708,17.2551022 C31.9418667,16.6727022 31.1306667,16.1827467 30.2270222,15.81528 L29.6758222,11.92568 C29.6145778,11.5582133 29.3083556,11.2970578 28.9408889,11.2970578 L23.0591111,11.2970578 C22.6916444,11.2970578 22.4004444,11.5582133 22.3392,11.92568 L21.788,15.81528 C20.8843556,16.1827467 20.0581333,16.68888 19.3070222,17.2551022 L15.6473778,15.7852356 C15.3099556,15.6627467 14.9274667,15.7852356 14.7437333,16.1215022 L11.8178667,21.2059467 C11.6341333,21.5283467 11.6953778,21.9258578 12.0016,22.1407911 L15.1112,24.5605244 C15.0337778,25.0204356 14.9725333,25.5254133 14.9725333,26.0003467 C14.9725333,26.47528 15.0037333,26.9802578 15.08,27.4401689 L11.9715556,29.8599022 C11.6953778,30.07368 11.6191111,30.4873689 11.7878222,30.7935911 L14.7275556,35.8780356 C14.9112889,36.2154578 15.2949333,36.3229244 15.6312,36.2154578 L19.292,34.7444356 C20.0581333,35.3268356 20.8693333,35.8167911 21.7729778,36.1842578 L22.3241778,40.0750133 C22.4004444,40.44248 22.6916444,40.70248 23.0591111,40.70248 L28.9408889,40.70248 C29.3083556,40.70248 29.6145778,40.44248 29.6608,40.0750133 L30.212,36.1842578 C31.1156444,35.8167911 31.9418667,35.3268356 32.6929778,34.7444356 L36.3526222,36.2154578 C36.6900444,36.3379467 37.0725333,36.2154578 37.2562667,35.8780356 L40.1971556,30.7935911 C40.3808889,30.4573244 40.3046222,30.07368 40.0134222,29.8599022 L36.9350222,27.4401689 Z" id="Stroke-2" stroke="#FFFFFF" stroke-width="1.5"></path>
            </g>
        </g>
    </g>
</svg>